<svg id="Capa_1" enable-background="new 0 0 512 512" viewBox="0 0 512 512" xmlns="http://www.w3.org/2000/svg">
  <g>
    <defs>
        <filter id="blur">
            <feGaussianBlur stdDeviation="2" />
        </filter>
    </defs>
    <path fill="#d35400" d="m496.5 463.866h-1.066v-307.266c0-13.271-10.797-24.066-24.067-24.066h-96.539c-4.143 0-7.5 3.357-7.5 7.5s3.357 7.5 7.5 7.5h96.539c5 0 9.067 4.067 9.067 9.066v91.9h-18.134v-42.2c0-22.405-18.228-40.633-40.633-40.633s-40.634 18.227-40.634 40.633v42.2h-18.133v-42.2c0-22.405-18.229-40.633-40.634-40.633s-40.633 18.227-40.633 40.633v14.511l-16.284-73.278h79.478c4.143 0 7.5-3.357 7.5-7.5s-3.357-7.5-7.5-7.5h-64.786c.005-.167.025-.331.025-.5v-17.133c0-8.547-6.953-15.5-15.5-15.5h-10.993l-13.479-53.918c4.124-2.788 6.84-7.507 6.84-12.849v-17.133c0-8.547-6.953-15.5-15.5-15.5h-215.934c-8.547 0-15.5 6.953-15.5 15.5v17.133c0 8.547 6.953 15.5 15.5 15.5h1.066v51.267h-1.066c-8.547 0-15.5 6.954-15.5 15.5v17.133c0 8.547 6.953 15.5 15.5 15.5h1.066v134.1h-1.066c-8.547 0-15.5 6.953-15.5 15.5v17.134c0 8.547 6.953 15.5 15.5 15.5h1.066v134.1h-1.066c-8.547 0-15.5 6.953-15.5 15.5v17.133c0 8.547 6.953 15.5 15.5 15.5h59.833c4.143 0 7.5-3.357 7.5-7.5 0-4.142-3.357-7.5-7.5-7.5h-59.833c-.275 0-.5-.225-.5-.5v-17.134c0-.275.225-.5.5-.5h481c.275 0 .5.225.5.5v17.134c0 .275-.225.5-.5.5h-391.167c-4.143 0-7.5 3.358-7.5 7.5 0 4.143 3.357 7.5 7.5 7.5h391.167c8.547 0 15.5-6.953 15.5-15.5v-17.134c0-8.547-6.953-15.5-15.5-15.5zm-118.517 0-4.03-18.133h7.08v18.133zm-313.283-75.333c0-14.134 11.499-25.633 25.633-25.633 14.135 0 25.634 11.499 25.634 25.633v75.333h-51.267zm66.267 57.2h18.133v18.133h-18.133zm33.133-57.2c0-14.134 11.499-25.633 25.634-25.633 14.134 0 25.633 11.499 25.633 25.633v75.333h-51.267zm66.266 57.2h18.134v18.133h-18.134zm33.134-57.2c0-14.134 11.499-25.633 25.634-25.633 14.134 0 25.633 11.499 25.633 25.633v75.333h-51.267zm66.267 57.2h28.821l4.03 18.133h-32.851zm66.266-57.2c0-14.134 11.499-25.633 25.634-25.633 14.134 0 25.633 11.499 25.633 25.633v75.333h-51.267zm66.267 57.2h18.134v18.133h-18.134zm18.134-15h-18.134v-42.2c0-22.405-18.228-40.633-40.633-40.633s-40.634 18.228-40.634 40.633v42.2h-10.413l-22.446-101.006c8.186-.407 14.727-7.175 14.727-15.461v-17.134c0-8.547-6.953-15.5-15.5-15.5h-52.25l-4.03-18.133h189.313zm-84.401-224.433c0-14.134 11.499-25.633 25.634-25.633 14.134 0 25.633 11.499 25.633 25.633v42.2h-51.267zm-73.766-25.633c14.135 0 25.634 11.499 25.634 25.633v42.2h-51.267v-42.2c0-14.134 11.499-25.633 25.633-25.633zm-307.267-148.034v-17.133c0-.275.225-.5.5-.5h215.934c.275 0 .5.225.5.5v17.133c0 .275-.225.5-.5.5h-215.934c-.275 0-.5-.225-.5-.5zm16.566 15.5h193.728l12.817 51.267h-206.545zm-16.566 83.9v-17.133c0-.275.225-.5.5-.5h249.066c.275 0 .5.225.5.5v17.133c0 .275-.225.5-.5.5h-.283-248.783c-.275 0-.5-.224-.5-.5zm234.984 15.5 22.437 100.967h-42.055v-42.2c0-22.405-18.228-40.633-40.633-40.633s-40.634 18.227-40.634 40.633v42.2h-18.133v-42.2c0-22.405-18.228-40.633-40.633-40.633s-40.634 18.227-40.634 40.633v42.2h-18.133v-100.967zm-85.884 100.967v-42.2c0-14.134 11.499-25.633 25.634-25.633 14.134 0 25.633 11.499 25.633 25.633v42.2zm-99.4 0v-42.2c0-14.134 11.499-25.633 25.633-25.633 14.135 0 25.634 11.499 25.634 25.633v42.2zm-33.134 15h244.188l4.029 18.133h-248.217zm-16.566 50.767v-17.134c0-.275.225-.5.5-.5h331.9c.275 0 .5.225.5.5v17.134c0 .275-.225.5-.5.5h-8.656c-.015 0-.029 0-.044 0h-323.2c-.275 0-.5-.225-.5-.5zm317.817 15.5 22.438 100.967h-25.487v-42.2c0-22.405-18.228-40.633-40.633-40.633s-40.634 18.228-40.634 40.633v42.2h-18.134v-42.2c0-22.405-18.228-40.633-40.633-40.633s-40.634 18.228-40.634 40.633v42.2h-18.133v-100.967zm-301.251 115.966h18.134v18.133h-18.134z"></path>
    <path fill="#d35400" d="m73.767 66.267h-16.567c-4.143 0-7.5 3.357-7.5 7.5s3.357 7.5 7.5 7.5h16.566c4.143 0 7.5-3.357 7.5-7.5s-3.357-7.5-7.499-7.5z"></path>
    <path fill="#d35400" d="m140.033 66.267h-16.566c-4.143 0-7.5 3.357-7.5 7.5s3.357 7.5 7.5 7.5h16.566c4.143 0 7.5-3.357 7.5-7.5s-3.357-7.5-7.5-7.5z"></path>
    <path fill="#d35400" d="m206.3 66.267h-16.566c-4.143 0-7.5 3.357-7.5 7.5s3.357 7.5 7.5 7.5h16.566c4.143 0 7.5-3.357 7.5-7.5s-3.358-7.5-7.5-7.5z"></path>
    <path fill="#d35400" d="m388.533 306.483c-4.143 0-7.5 3.357-7.5 7.5v8.283c0 4.143 3.357 7.5 7.5 7.5 4.142 0 7.5-3.357 7.5-7.5v-8.283c0-4.142-3.357-7.5-7.5-7.5z"></path>
    <path fill="#d35400" d="m447.3 313.983v8.283c0 4.143 3.357 7.5 7.5 7.5 4.142 0 7.5-3.357 7.5-7.5v-8.283c0-4.143-3.358-7.5-7.5-7.5-4.143 0-7.5 3.358-7.5 7.5z"></path>
  </g>
</svg>
