<?xml version="1.0" standalone="no"?>
<!DOCTYPE svg PUBLIC "-//W3C//DTD SVG 20010904//EN"
 "http://www.w3.org/TR/2001/REC-SVG-20010904/DTD/svg10.dtd">
<svg version="1.0" xmlns="http://www.w3.org/2000/svg"
 width="802.000000pt" height="784.000000pt" viewBox="0 0 802.000000 784.000000"
 preserveAspectRatio="xMidYMid meet">

<g transform="translate(0.000000,784.000000) scale(0.100000,-0.100000)"
fill="#ed443b" stroke="none">
<path d="M0 4322 l0 -3517 22 -10 c12 -6 32 -24 44 -42 12 -18 24 -30 27 -27
3 3 13 -8 21 -24 9 -17 21 -36 28 -44 32 -33 71 -160 83 -272 4 -33 6 -125 6
-205 0 -80 2 -154 5 -163 5 -17 199 -18 3895 -18 l3889 0 0 2176 c0 1737 -3
2174 -12 2168 -7 -4 -89 -71 -183 -149 -189 -157 -253 -206 -241 -187 11 18
290 258 369 317 l67 50 0 120 0 121 -47 12 c-54 15 -94 53 -138 133 l-30 54
-3 484 c-2 405 -5 487 -17 505 -25 35 -19 106 14 157 48 74 153 159 198 159
l23 0 0 590 0 590 -22 4 c-58 12 -97 14 -129 6 l-34 -8 33 -1 c18 -1 31 -5 27
-10 -3 -5 -1 -12 5 -16 6 -4 3 -13 -8 -24 -19 -19 -132 -84 -132 -76 0 3 -15
-2 -32 -11 -18 -9 -42 -17 -53 -18 -11 -1 -24 -10 -29 -21 -8 -19 -87 -85
-101 -85 -14 0 -101 -65 -124 -92 -29 -34 -58 -37 -64 -5 -3 16 -5 13 -7 -13
-2 -22 -6 -6 -10 40 l-6 75 -2 -70 c-4 -135 -21 -246 -43 -274 -36 -46 -69
-61 -134 -61 -42 0 -56 -3 -45 -10 8 -5 29 -10 47 -10 46 0 66 -9 53 -25 -8
-9 -6 -14 5 -19 9 -3 14 -10 11 -15 -3 -5 7 -17 22 -27 66 -42 78 -73 69 -179
-13 -148 -50 -189 -173 -190 -62 0 -75 3 -107 28 -44 33 -56 72 -51 164 2 49
1 60 -5 38 -5 -16 -10 -46 -11 -65 -1 -19 -4 -29 -7 -22 -2 6 -13 12 -23 12
-20 0 -34 -37 -24 -67 5 -15 4 -15 -5 -3 -7 10 -11 11 -11 3 0 -7 -9 -13 -19
-13 -12 0 -23 -11 -30 -31 -14 -40 -15 -209 -1 -209 6 0 10 -18 10 -40 0 -32
4 -40 19 -40 16 0 20 -15 31 -120 7 -66 17 -120 21 -120 5 0 9 -36 9 -80 0
-47 4 -80 10 -80 6 0 10 18 10 40 0 72 18 42 24 -40 3 -44 9 -116 12 -160 5
-70 9 -80 25 -80 17 0 19 -8 19 -80 0 -64 3 -80 15 -80 12 0 15 -19 15 -114 0
-108 13 -182 30 -171 12 7 20 -21 20 -71 0 -24 5 -44 10 -44 6 0 10 -18 10
-41 0 -24 -4 -38 -10 -34 -6 4 -10 -31 -10 -99 0 -65 -4 -107 -11 -112 -6 -3
-8 -16 -5 -27 6 -23 -24 -140 -48 -189 -9 -17 -16 -37 -16 -45 0 -7 -6 -13
-12 -13 -15 0 -68 -63 -68 -81 0 -6 -7 -9 -15 -5 -10 4 -15 -1 -15 -15 0 -11
-4 -18 -9 -15 -5 3 -11 -4 -15 -17 -5 -17 -8 -19 -15 -8 -14 22 -31 3 -26 -32
4 -28 4 -29 -4 -7 -8 23 -9 22 -13 -15 -3 -23 -5 -4 -6 47 -1 57 2 89 10 94 8
5 9 2 5 -10 -4 -10 -3 -15 4 -11 5 4 7 14 4 24 -3 9 3 26 13 37 33 36 42 74
41 162 l-2 87 -9 -95 c-7 -76 -14 -102 -34 -130 -65 -91 -60 -51 -54 -432 3
-190 8 -350 12 -353 4 -4 25 7 48 25 22 17 48 33 58 34 9 2 17 7 17 12 0 5 19
27 42 48 35 31 45 36 60 26 16 -10 15 -10 -5 -5 -21 6 -22 4 -17 -22 3 -19 3
-22 -3 -10 -7 17 -9 17 -27 -3 -16 -18 -16 -20 -2 -14 10 3 17 1 17 -5 0 -6
-4 -11 -10 -11 -5 0 -10 -5 -10 -12 0 -9 3 -9 12 0 15 15 32 16 23 2 -4 -6 6
-10 24 -10 39 0 61 -9 61 -25 0 -15 42 -28 63 -19 12 4 15 -5 15 -48 1 -36 6
-56 17 -64 9 -7 21 -28 26 -48 7 -25 16 -36 28 -36 11 0 22 -7 25 -16 9 -24 0
-29 -20 -13 -16 13 -16 12 -3 -8 17 -28 24 -28 56 -3 14 11 30 17 35 14 6 -4
8 3 4 17 -3 13 -3 18 0 12 3 -7 10 -13 15 -13 6 0 7 4 4 10 -3 6 -1 10 4 10
20 0 11 -18 -21 -45 -18 -15 -73 -64 -123 -110 -49 -45 -141 -128 -203 -185
-62 -56 -130 -122 -150 -147 -35 -41 -37 -48 -42 -130 l-5 -86 -35 -12 c-35
-12 -36 -13 -39 -83 -1 -13 -12 -34 -26 -48 -14 -14 -25 -29 -25 -34 0 -6 -9
-10 -19 -10 -11 0 -22 -4 -25 -9 -6 -10 -139 -21 -167 -14 -10 3 -16 9 -13 14
3 5 0 9 -6 9 -6 0 -8 5 -4 11 4 7 2 10 -4 8 -11 -4 -198 -171 -311 -278 l-65
-60 -50 33 c-28 18 -94 59 -146 91 -85 51 -167 110 -195 140 -5 6 -19 18 -30
25 -19 14 -19 14 -6 -3 28 -35 168 -145 268 -211 57 -37 105 -71 108 -77 11
-16 -10 -10 -48 17 -21 14 -61 32 -90 39 -29 8 -61 17 -72 20 -36 11 -116 -53
-149 -119 -26 -50 -28 -59 -16 -81 18 -33 20 -199 2 -216 -10 -11 -12 -6 -13
21 -1 19 -4 46 -9 60 -4 14 -5 -32 -2 -101 4 -110 3 -127 -12 -132 -10 -4 -16
-1 -16 9 0 8 -5 12 -10 9 -6 -3 -10 -1 -10 5 0 6 -4 9 -9 5 -13 -7 -81 53 -92
82 -11 30 -163 252 -266 389 -46 60 -83 118 -83 127 0 10 7 29 16 43 14 20 22
23 50 18 45 -8 60 3 37 28 -17 19 -17 20 19 13 35 -7 38 -4 142 95 58 57 106
107 106 112 0 10 -78 114 -122 164 -16 17 -45 54 -66 81 -75 101 -178 199
-347 331 -44 34 -114 90 -155 125 -42 34 -91 74 -110 88 -19 15 -32 30 -28 34
8 9 106 -58 181 -123 31 -28 74 -64 94 -79 21 -15 62 -47 91 -70 66 -54 78
-55 27 -3 -38 39 -44 70 -7 37 10 -10 29 -17 41 -17 12 0 32 -11 45 -25 29
-31 32 -31 40 -2 5 17 8 19 15 8 5 -7 14 -10 20 -6 7 4 18 1 26 -5 8 -7 15 -9
15 -4 0 5 19 18 41 29 43 20 71 63 103 160 12 38 14 58 6 85 -19 67 30 177
100 224 44 29 70 75 70 124 0 40 32 78 85 101 56 25 68 46 49 90 -11 25 -17
31 -27 23 -18 -15 -32 -2 -35 33 l-2 30 19 -25 c19 -24 20 -24 27 -5 18 53 47
104 73 129 24 23 39 29 88 31 75 2 165 29 199 58 l27 23 -31 85 c-29 80 -119
427 -130 498 -3 22 0 36 9 42 22 14 49 10 49 -6 0 -8 5 -15 11 -15 6 0 9 10 7
23 -2 18 -9 22 -33 19 -16 -1 -36 2 -43 6 -15 10 -6 42 12 42 7 0 22 14 34 30
13 17 27 30 32 30 4 0 22 14 39 30 32 33 48 85 32 109 -8 12 -19 5 -55 -35
l-45 -49 25 49 c23 48 24 55 23 270 -1 190 -3 215 -13 181 -12 -37 -13 -38
-19 -15 -5 18 -9 21 -15 12 -6 -9 -18 -4 -46 20 l-37 33 -2 212 -2 212 41 -42
c55 -56 72 -69 84 -62 5 3 18 1 28 -4 29 -16 45 -182 37 -373 -6 -134 -4 -168
15 -273 35 -190 35 -182 10 -218 -12 -17 -36 -39 -53 -48 -42 -21 -49 -44 -11
-35 16 4 43 15 59 25 l30 17 -1 95 c0 52 -9 132 -19 179 -15 71 -16 111 -11
238 4 94 2 201 -5 277 l-11 124 26 31 c14 18 23 37 20 42 -4 6 -3 8 3 5 5 -3
27 12 49 35 l39 41 -32 -19 c-18 -10 -35 -16 -37 -13 -3 3 -2 45 2 94 5 59 3
106 -5 135 -6 25 -12 38 -13 30 -1 -8 -7 3 -14 25 -7 22 -17 39 -23 38 -6 -1
-14 17 -18 40 l-8 42 -7 -45 c-4 -25 -10 -59 -13 -77 -3 -18 -12 -42 -21 -55
-9 -12 -16 -30 -16 -40 0 -10 -4 -18 -9 -18 -5 0 -12 26 -17 58 l-7 57 -9 -54
c-12 -80 -18 -75 -18 15 0 55 -3 74 -10 64 -5 -8 -10 -28 -11 -45 -1 -26 -2
-24 -9 12 -5 23 -14 52 -20 63 -6 12 -13 45 -14 73 -13 216 -61 353 -175 501
-34 43 -61 80 -61 83 0 2 9 -1 19 -6 23 -13 107 -122 129 -168 9 -18 19 -33
23 -33 4 0 11 20 15 45 l9 45 51 -48 c28 -27 53 -55 56 -63 3 -8 9 -11 13 -7
4 4 -9 49 -28 100 -85 224 -108 268 -180 346 -48 50 -54 38 -7 -15 36 -41 86
-121 78 -124 -20 -6 -61 -5 -92 1 -47 10 -80 -3 -72 -28 4 -12 2 -12 -7 2
-114 178 -156 224 -286 310 -110 73 -124 72 -24 -2 99 -74 179 -159 226 -240
20 -35 37 -65 37 -68 0 -20 -132 55 -195 111 -82 73 -264 183 -294 176 -8 -1
-10 2 -5 10 4 8 3 10 -4 5 -16 -10 -83 22 -199 93 -135 83 -224 122 -431 190
-200 67 -327 88 -544 91 -20 0 -28 5 -29 18 0 14 -2 14 -11 -4 -9 -19 -21 -22
-108 -27 -106 -7 -217 -32 -319 -72 -69 -27 -96 -31 -86 -15 4 6 -5 5 -20 -2
-20 -9 -33 -9 -59 0 -18 7 -37 12 -44 12 -6 0 -27 10 -48 22 l-36 21 27 15
c15 7 68 24 119 37 75 20 84 24 51 25 -22 0 -72 -9 -110 -20 -93 -27 -116 -25
-191 11 l-64 30 47 36 c27 20 66 52 88 72 22 20 51 44 65 53 24 16 -69 17
-1607 17 l-1633 1 0 -3518z m2679 3408 c-31 -4 -77 -17 -102 -29 -55 -27 -146
-122 -178 -186 -24 -47 -39 -58 -39 -26 0 39 123 186 182 217 38 20 95 32 148
32 43 -1 43 -1 -11 -8z m22 -55 c-84 -35 -112 -38 -75 -10 27 21 94 43 129 44
22 0 9 -9 -54 -34z m392 -57 c76 -31 81 -37 60 -61 -21 -23 -98 -76 -205 -140
-80 -49 -116 -66 -158 -73 -14 -3 -47 -11 -75 -19 -27 -7 -69 -17 -92 -20 -40
-6 -43 -5 -42 17 1 12 5 34 9 48 l8 25 2 -25 c1 -14 4 -19 7 -12 2 6 9 12 14
12 6 0 8 -4 5 -8 -3 -5 8 -6 25 -4 16 2 29 8 29 12 0 5 19 11 43 15 23 4 47
12 54 17 7 5 21 7 32 3 16 -5 20 -3 15 9 -3 9 -2 16 3 16 6 0 15 11 21 24 6
13 20 27 31 31 12 4 18 12 14 21 -3 7 0 14 6 14 11 0 57 38 94 78 11 12 27 22
34 22 8 0 11 5 8 10 -9 14 0 13 58 -12z m1082 -48 c138 -10 221 -25 231 -41 3
-5 -31 -6 -74 -2 -44 3 -108 1 -143 -5 -35 -6 -111 -14 -168 -17 l-103 -6 7
38 c10 54 12 55 64 49 25 -3 109 -10 186 -16z m-260 -27 c-4 -21 -8 -39 -9
-40 -1 -1 -33 -7 -70 -13 -38 -6 -74 -14 -80 -18 -13 -7 -216 -3 -230 6 -15 9
55 39 154 66 103 27 132 32 199 35 l43 1 -7 -37z m-660 -40 c30 -21 54 -40 54
-43 1 -16 -114 -55 -249 -86 -125 -28 -165 -41 -205 -68 -58 -39 -74 -45 -137
-55 -85 -14 -52 11 52 41 51 14 125 55 186 104 58 46 215 144 232 144 7 0 38
-17 67 -37z m618 -40 c-13 -2 -33 -2 -45 0 -13 2 -3 4 22 4 25 0 35 -2 23 -4z
m40 -54 c108 -17 116 -21 108 -61 l-7 -33 -65 3 c-110 6 -217 29 -264 57 -25
14 -45 30 -45 35 0 14 185 13 273 -1z m819 -20 c105 -36 274 -118 242 -118
-11 -1 -45 3 -75 8 -62 11 -300 23 -281 15 19 -9 14 -26 -5 -21 -10 3 -73 22
-140 43 -125 38 -140 54 -54 54 43 0 44 1 27 19 -17 19 -17 20 16 24 107 13
178 7 270 -24z m-2278 -34 c-6 -16 -35 -35 -51 -35 -7 1 47 50 54 50 1 0 0 -7
-3 -15z m1943 -101 c-3 -3 -12 -4 -19 -1 -8 3 -5 6 6 6 11 1 17 -2 13 -5z
m-1394 -11 c-13 -2 -35 -2 -50 0 -16 2 -5 4 22 4 28 0 40 -2 28 -4z m1540 -25
c70 -22 311 -137 304 -144 -4 -4 -81 30 -230 101 -21 10 -77 30 -125 46 -51
17 -70 26 -47 23 22 -4 66 -15 98 -26z m-2214 -8 c4 0 12 5 18 11 12 12 62 -2
210 -58 34 -13 76 -24 95 -24 18 -1 47 -5 63 -8 l30 -7 -35 -16 c-49 -21 -149
-53 -250 -79 -72 -18 -101 -21 -186 -16 -135 9 -138 10 -112 52 11 19 16 40
12 47 -4 7 -4 10 1 6 4 -4 25 15 47 42 43 54 91 85 96 63 2 -7 7 -13 11 -13z
m2548 4 c-3 -3 -12 -4 -19 -1 -8 3 -5 6 6 6 11 1 17 -2 13 -5z m83 -19 c22 -8
28 -13 15 -13 -11 0 -36 6 -55 13 -22 8 -28 13 -15 13 11 0 36 -6 55 -13z
m-1950 -5 c-8 -5 -22 -10 -30 -10 -13 0 -13 1 0 10 8 5 22 10 30 10 13 0 13
-1 0 -10z m2333 -110 c64 -37 112 -74 82 -63 -36 12 -158 93 -141 93 3 0 30
-14 59 -30z m-3183 11 c0 -10 -34 -41 -45 -41 -6 0 -16 5 -23 12 -10 10 -7 15
10 24 22 12 58 15 58 5z m3091 -68 c25 -26 63 -64 85 -84 71 -65 135 -139 129
-149 -4 -6 5 -24 19 -41 33 -39 34 -60 1 -29 -31 29 -32 13 -4 -43 13 -27 16
-36 6 -27 -33 34 -177 243 -201 293 -22 48 -66 99 -121 142 -18 15 -18 15 10
1 17 -8 51 -36 76 -63z m-3300 -7 c42 5 49 -7 49 -87 0 -29 6 -51 15 -59 9 -7
18 -11 20 -8 8 8 24 139 18 154 -7 18 -4 18 70 -7 43 -14 99 -23 180 -26 64
-3 117 -9 117 -14 0 -4 -39 -39 -87 -77 -49 -39 -131 -115 -183 -169 -52 -54
-116 -116 -142 -137 l-47 -38 -76 48 c-42 26 -81 55 -88 63 -8 10 -3 9 16 -3
30 -20 38 -11 10 10 -17 13 -17 15 0 28 15 12 16 14 2 20 -39 15 11 256 54
256 11 0 11 3 0 17 -12 15 -12 16 4 10 9 -3 17 -2 17 3 0 6 -4 10 -10 10 -5 0
-10 5 -10 10 0 7 6 7 18 2 9 -5 33 -8 53 -6z m2689 -30 c73 -20 181 -76 173
-89 -3 -6 -1 -7 5 -3 12 7 87 -39 112 -68 15 -19 7 -32 -12 -20 -7 5 -20 7
-29 6 -9 -2 -76 26 -150 61 -160 77 -268 114 -369 126 -65 9 -56 9 70 6 89 -2
166 -10 200 -19z m-1911 3 c34 -12 40 -24 16 -33 -23 -8 -104 -70 -105 -79 0
-10 70 20 92 39 25 23 43 13 21 -11 -36 -39 -84 -67 -109 -62 -20 3 -24 0 -24
-19 0 -18 -6 -24 -22 -24 -70 -1 -218 -43 -333 -96 -69 -31 -128 -55 -130 -52
-8 7 109 139 167 189 79 68 125 95 208 122 122 40 163 45 219 26z m1235 -11
c-16 -13 -40 -34 -53 -47 -21 -21 -24 -22 -39 -7 -15 15 -15 17 1 34 19 19 71
40 101 41 16 1 14 -3 -10 -21z m945 -42 c32 -17 109 -98 202 -212 35 -44 66
-81 70 -84 3 -3 6 -12 7 -20 0 -8 4 -26 8 -39 l7 -24 -36 27 c-20 15 -53 48
-73 74 -21 26 -56 68 -78 93 -122 137 -156 179 -156 188 0 15 16 14 49 -3z
m976 -76 c3 -5 1 -10 -4 -10 -6 0 -11 5 -11 10 0 6 2 10 4 10 3 0 8 -4 11 -10z
m-620 -24 c35 -27 112 -133 102 -142 -3 -3 -45 33 -94 80 -75 73 -84 85 -64
86 13 0 38 -11 56 -24z m-484 -29 c14 -12 36 -37 49 -56 l23 -33 -23 12 c-18
10 -24 9 -30 -1 -6 -8 -18 3 -39 36 -17 27 -31 53 -31 57 0 15 25 8 51 -15z
m-1931 -53 c-25 -8 -63 -13 -85 -12 -37 3 -35 4 25 14 90 16 113 15 60 -2z
m3098 -12 c20 -30 11 -28 -19 4 -13 15 -18 25 -10 22 8 -2 21 -14 29 -26z
m-4303 -50 c86 -42 248 -142 260 -162 13 -21 -16 -8 -82 36 -198 133 -251 155
-398 165 l-110 7 120 -2 c120 -1 120 -1 210 -44z m-370 27 c-96 -22 -203 -76
-262 -132 -18 -17 -35 -28 -38 -25 -10 10 87 87 144 114 64 31 135 52 171 52
16 0 11 -3 -15 -9z m1542 -29 c88 -31 85 -42 -3 -14 -43 14 -81 27 -83 30 -11
10 34 2 86 -16z m363 -16 c-26 -30 -31 -43 -26 -68 l6 -31 -15 25 c-22 38 -18
56 16 84 45 38 56 32 19 -10z m2494 3 c26 -34 33 -57 18 -57 -5 0 -14 10 -20
23 -7 12 -19 32 -28 45 -26 36 2 25 30 -11z m-3334 10 c0 -8 22 -26 49 -40 56
-31 116 -35 181 -12 35 12 40 13 31 1 -7 -8 -23 -17 -37 -20 -14 -4 -58 -22
-99 -41 -41 -19 -87 -35 -102 -36 -15 0 -22 -3 -15 -6 16 -6 131 14 189 33 24
8 49 14 56 11 17 -5 -198 -77 -297 -98 -104 -22 -176 -24 -229 -5 -37 14 -77
42 -77 55 0 14 132 105 156 108 14 2 58 17 97 33 82 33 97 36 97 17z m934 -12
c-18 -14 -46 -47 -64 -75 -18 -27 -34 -50 -35 -50 -5 0 12 58 27 94 6 16 25
34 42 42 50 21 64 16 30 -11z m-1844 -35 c0 -17 -7 -46 -15 -65 -26 -63 -136
-146 -154 -116 -9 13 -23 0 -34 -31 -7 -19 12 -25 29 -9 18 18 134 59 140 50
3 -5 8 -50 11 -99 3 -50 9 -90 12 -90 4 0 52 22 106 49 55 26 111 52 125 56
14 4 79 33 146 65 168 80 164 79 204 24 42 -59 99 -100 150 -108 24 -4 40 -12
40 -20 0 -8 -38 -53 -85 -101 -46 -48 -103 -108 -126 -133 -43 -48 -69 -63
-212 -118 -106 -41 -135 -42 -207 -8 -53 25 -54 26 -30 36 14 5 50 7 80 4 36
-4 69 -1 95 8 28 10 44 11 53 4 9 -8 11 -7 6 6 -4 10 -1 16 7 16 11 0 11 2 -1
10 -11 7 -7 9 15 7 17 -1 30 3 30 10 0 6 11 24 24 39 26 30 41 74 41 119 0 17
6 39 13 50 7 11 14 41 15 67 1 26 4 61 7 77 6 34 3 36 -23 21 -9 -5 -33 -16
-52 -24 -19 -8 -111 -47 -205 -86 -93 -40 -224 -105 -290 -145 -150 -90 -250
-139 -269 -132 -13 5 -11 17 8 79 76 238 182 427 273 487 60 39 73 39 73 1z
m1929 11 c11 -7 7 -28 -22 -112 -19 -57 -37 -113 -39 -124 -4 -16 -8 -12 -22
20 -9 21 -24 47 -33 57 -15 16 -14 21 1 63 18 46 68 105 89 105 7 0 18 -4 26
-9z m2314 -35 c6 -16 -2 -28 -14 -20 -12 7 -11 34 0 34 5 0 11 -6 14 -14z
m-1516 -22 c-3 -3 -12 -4 -19 -1 -8 3 -5 6 6 6 11 1 17 -2 13 -5z m-1457 -83
c0 -5 -13 -12 -30 -16 -16 -4 -32 -11 -35 -16 -9 -14 -25 -11 -25 6 0 8 12 17
28 21 15 3 32 7 37 9 18 6 25 5 25 -4z m4925 -73 c44 -30 67 -65 72 -113 7
-56 -20 -145 -52 -175 -24 -22 -36 -25 -104 -25 -70 0 -81 3 -114 28 -69 53
-86 131 -46 214 45 94 159 127 244 71z m-5120 -65 c-50 -68 -109 -124 -155
-148 -96 -48 -331 -145 -340 -140 -12 8 38 75 53 72 6 -1 11 3 12 8 1 11 77
114 110 149 24 26 185 71 339 95 4 0 -4 -16 -19 -36z m558 11 c8 -8 -45 -82
-90 -125 l-35 -34 13 30 c16 36 45 82 72 113 21 23 29 26 40 16z m77 -14 c0
-6 -9 -27 -19 -48 -10 -20 -18 -41 -17 -46 0 -5 -18 -17 -41 -27 -24 -10 -43
-15 -43 -11 0 17 99 141 113 142 4 0 7 -5 7 -10z m530 -36 c50 -12 100 -15
215 -11 83 2 159 8 170 12 16 6 18 5 8 -5 -15 -17 -111 -38 -208 -46 -91 -7
-189 8 -246 37 -46 23 -63 45 -28 35 13 -3 53 -14 89 -22z m826 2 c11 -8 35
-53 53 -100 37 -94 39 -96 133 -96 78 0 102 11 143 69 53 73 108 111 163 111
49 0 151 -33 194 -62 16 -11 29 -14 33 -9 7 12 35 3 35 -11 0 -6 -6 -5 -15 2
-9 7 -15 8 -15 2 0 -12 129 -86 137 -78 3 3 -6 21 -21 40 -32 42 -34 57 -3 29
22 -21 158 -80 235 -102 62 -18 154 -75 217 -134 49 -47 57 -60 77 -132 16
-61 22 -117 26 -237 l4 -156 -46 -85 -47 -85 36 -57 c34 -52 76 -153 75 -179
-1 -6 -12 10 -25 36 -32 61 -48 70 -30 17 9 -23 12 -45 9 -48 -4 -3 -9 1 -12
9 -8 22 -62 70 -79 70 -8 0 -27 8 -41 19 -15 10 -61 35 -102 56 -41 21 -85 50
-98 64 l-23 26 7 -27 c5 -25 3 -28 -17 -28 -13 1 -53 7 -89 15 -37 8 -123 15
-200 15 l-135 1 28 20 c15 11 27 27 27 34 0 7 22 18 51 25 35 9 49 16 45 26
-3 7 -1 16 4 19 6 4 10 1 10 -4 0 -6 8 -11 18 -11 14 0 15 2 2 10 -13 8 -12
10 5 11 11 1 37 1 58 0 l37 -3 0 41 c0 23 -4 41 -9 41 -5 0 -9 10 -9 23 -1 43
-17 100 -30 105 -6 2 -12 -3 -12 -12 0 -9 -4 -16 -10 -16 -5 0 -10 11 -10 24
0 14 5 28 10 31 16 10 11 25 -8 25 -22 0 -62 82 -44 88 24 8 11 38 -25 57 -21
11 -69 38 -107 59 -60 35 -67 41 -51 50 31 19 75 57 75 67 0 5 -19 9 -42 9
-44 0 -83 17 -61 26 6 3 36 23 67 45 54 39 69 59 44 59 -6 0 -9 3 -5 6 11 11
-21 61 -60 93 -49 41 -108 57 -140 40 -13 -7 -37 -34 -53 -61 -33 -53 -65 -88
-80 -88 -5 0 -10 -4 -10 -8 0 -15 -99 -42 -151 -42 -27 0 -49 -5 -49 -10 0
-14 47 -108 71 -142 21 -29 23 -38 10 -38 -5 0 -33 42 -62 94 l-52 94 -64 12
c-35 6 -68 8 -74 4 -5 -3 -15 -1 -22 4 -7 5 -30 12 -52 16 -38 6 -41 4 -71
-37 -17 -23 -39 -58 -49 -77 -10 -19 -20 -30 -22 -23 -2 6 10 39 26 72 17 33
31 63 31 67 0 3 -44 3 -97 -1 -114 -8 -115 3 -3 30 105 26 117 33 190 118 36
42 72 77 80 80 28 9 46 7 66 -7z m1119 -11 c24 -8 69 -61 79 -92 5 -16 -4 -10
-36 21 -24 23 -56 52 -73 65 -30 22 -23 23 30 6z m-2465 -35 c-24 -15 -31 -11
-18 10 9 13 16 16 23 9 7 -7 5 -13 -5 -19z m2726 -8 c-17 -16 -18 -16 -5 5 7
12 15 20 18 17 3 -2 -3 -12 -13 -22z m4 -48 c0 -8 -5 -12 -10 -9 -6 4 -8 11
-5 16 9 14 15 11 15 -7z m247 -76 c-3 -8 -6 -5 -6 6 -1 11 2 17 5 13 3 -3 4
-12 1 -19z m-3836 -16 c-14 -27 -71 -68 -139 -101 -72 -36 -260 -113 -332
-136 -30 -10 -59 -22 -65 -28 -7 -7 -6 -8 3 -3 11 6 172 -9 208 -19 7 -2 8
-19 5 -45 -5 -35 -12 -44 -45 -63 -39 -22 -60 -39 -126 -97 -38 -34 -24 -30
26 7 40 30 103 52 187 63 55 8 83 19 139 56 39 25 73 43 75 40 3 -3 23 4 44
14 48 25 88 24 81 -3 -4 -17 0 -19 59 -13 35 2 69 6 74 7 6 1 28 -2 50 -6 l40
-7 -35 30 c-39 34 -39 34 50 52 30 6 57 16 61 22 9 15 69 -21 69 -42 -1 -12
-3 -12 -14 3 -16 21 -42 22 -49 3 -4 -9 2 -17 14 -21 25 -8 24 -22 -3 -36 -30
-16 -167 -49 -203 -49 -16 0 -89 -9 -161 -21 l-131 -22 -28 -61 c-15 -34 -58
-182 -95 -331 -38 -148 -75 -288 -83 -311 -38 -104 -77 -154 -152 -192 l-40
-21 30 -2 c60 -3 121 4 158 18 51 21 41 27 -13 8 -23 -8 -61 -15 -84 -14 l-41
0 25 17 c50 33 99 95 124 155 28 69 45 128 107 362 23 88 46 165 52 170 6 6 7
1 2 -15 -7 -21 -7 -73 -1 -197 0 -18 4 -33 7 -33 3 0 23 29 44 65 21 36 40 65
42 65 2 0 -19 -43 -47 -96 -28 -53 -50 -98 -48 -100 2 -2 33 47 68 108 64 111
108 173 117 164 3 -2 -5 -26 -16 -52 -12 -26 -20 -49 -18 -51 2 -1 21 22 42
52 21 31 39 54 41 53 3 -4 -29 -109 -67 -218 -49 -138 -49 -134 -3 -126 51 10
74 26 114 78 25 34 26 37 4 13 -41 -45 -85 -75 -111 -75 -13 0 -23 4 -23 8 0
4 32 39 71 76 87 85 134 152 198 285 52 106 60 138 47 179 -14 42 34 74 137
93 34 6 72 16 84 22 13 5 26 8 29 4 4 -3 -14 -62 -39 -131 -62 -168 -86 -276
-99 -431 -14 -180 -13 -241 5 -268 8 -12 14 -26 15 -31 0 -5 6 -13 14 -17 11
-7 11 -9 0 -9 -16 0 -42 24 -42 39 0 6 -4 11 -10 11 -5 0 -10 7 -10 16 0 14
-2 15 -17 3 -15 -13 -16 -12 -11 9 4 12 2 22 -4 22 -21 0 -687 -680 -737 -753
-28 -42 -37 -48 -60 -44 -257 47 -261 47 -506 47 -134 0 -255 -4 -269 -10 -54
-20 -53 -65 10 -325 37 -152 38 -149 -48 -176 -40 -12 -77 -26 -83 -30 -5 -4
-35 -14 -65 -22 -74 -19 -96 -10 -105 42 -11 64 -22 57 -27 -16 -2 -39 -9 -68
-16 -71 -7 -2 -12 -10 -12 -17 0 -15 -40 -8 -53 9 -6 8 -10 7 -14 -1 -2 -7
-15 -13 -28 -13 -13 0 -28 -7 -33 -16 -19 -35 -27 14 -29 198 l-3 187 46 -20
c26 -11 49 -17 52 -14 3 3 1 5 -5 5 -22 0 -96 76 -121 124 -25 48 -27 60 -30
215 -6 271 21 425 84 481 36 31 115 47 182 36 42 -6 74 -41 69 -73 -4 -21 -2
-20 42 9 46 31 318 299 464 458 80 87 135 166 123 178 -4 3 -28 9 -54 12 l-47
5 -3 108 c-3 102 -1 109 18 114 11 3 20 9 20 14 0 5 5 9 11 9 5 0 7 -5 3 -12
-4 -7 -3 -8 4 -4 12 7 17 36 7 36 -3 0 -23 -9 -44 -20 -57 -29 -259 -88 -328
-95 -48 -6 -62 -4 -76 10 -29 28 -17 45 43 63 71 21 356 135 370 149 3 3 -8 1
-24 -3 -46 -11 -27 17 23 34 66 22 40 27 -51 9 -46 -9 -123 -21 -173 -27 -93
-11 -236 -38 -244 -45 -2 -3 4 -7 13 -11 29 -11 17 -21 -39 -33 -44 -10 -59
-10 -71 0 -22 18 2 40 89 83 118 57 183 74 345 89 84 8 155 17 158 20 3 3 -7
12 -23 20 -29 16 -81 77 -64 77 6 0 14 -6 18 -14 4 -7 18 -18 30 -25 21 -11
21 -10 8 16 -8 16 -11 29 -6 31 5 2 64 -24 130 -57 66 -34 127 -61 134 -61 17
0 223 82 278 111 43 23 331 126 357 128 9 1 10 -4 3 -17z m204 -9 c-8 -37 -53
-101 -79 -115 -20 -11 -20 -11 -1 18 10 16 32 50 48 77 34 54 42 59 32 20z
m1477 -10 c-5 -10 -13 -38 -17 -63 -22 -137 -103 -164 -252 -85 -37 20 -59 33
-48 29 30 -10 170 -17 198 -10 25 6 49 34 61 74 7 20 5 21 -19 12 -45 -17 -42
-11 8 19 26 15 53 33 59 39 16 16 22 8 10 -15z m-1396 -28 c-30 -26 -36 -29
-36 -20 0 11 53 55 59 50 3 -3 -8 -17 -23 -30z m281 -100 c-42 -40 -73 -77
-67 -80 15 -9 12 -45 -4 -45 -23 0 -24 51 -2 83 20 31 125 117 141 117 6 -1
-25 -34 -68 -75z m203 1 c0 -2 -8 -10 -17 -17 -16 -13 -17 -12 -4 4 13 16 21
21 21 13z m141 -62 c-5 -20 -8 -50 -5 -68 4 -24 3 -27 -5 -16 -6 8 -11 25 -11
38 0 34 24 120 28 100 2 -9 -1 -33 -7 -54z m1181 -16 c-6 -6 -17 -5 -31 4 -26
16 -27 35 -3 40 21 5 49 -29 34 -44z m-1774 18 c-10 -7 -14 -16 -10 -21 4 -4
-4 -4 -17 0 -16 5 -21 4 -17 -4 5 -7 1 -9 -8 -5 -22 9 -21 11 22 33 39 20 59
18 30 -3z m-493 -67 c-54 -54 -112 -95 -122 -85 -4 3 1 22 10 41 12 25 33 43
74 64 84 43 94 38 38 -20z m165 8 c0 -2 -12 -14 -27 -28 l-28 -24 24 28 c23
25 31 32 31 24z m680 0 c0 -2 -11 -32 -25 -68 -28 -69 -45 -129 -49 -170 -2
-24 -10 -42 -61 -137 -24 -47 -12 -51 16 -5 12 21 42 61 64 88 23 28 47 59 53
70 6 11 12 14 12 8 0 -16 -54 -105 -94 -155 -35 -46 -29 -58 13 -27 17 12 33
20 36 17 10 -10 -23 -113 -58 -183 -36 -71 -82 -215 -68 -215 4 0 12 5 19 12
10 10 11 5 6 -22 -3 -19 -7 -41 -10 -47 -8 -27 15 -11 46 30 30 40 50 79 120
232 18 39 34 65 36 59 5 -13 -37 -163 -74 -263 -30 -82 -85 -151 -120 -151
-12 0 -22 4 -22 9 0 5 -8 8 -17 7 -9 0 -27 15 -41 34 -23 34 -24 39 -19 185 5
157 20 243 61 360 39 113 56 148 88 181 21 23 32 48 41 93 9 47 16 61 29 61
10 0 18 -1 18 -3z m1264 -17 c14 -5 37 -27 51 -49 22 -33 27 -54 31 -123 l4
-83 -20 60 c-11 33 -33 75 -49 94 l-29 35 -26 -29 c-29 -31 -35 -18 -10 21 16
24 16 26 -5 45 -11 11 -21 24 -21 29 0 13 41 13 74 0z m-94 -350 c45 -45 101
-161 80 -168 -5 -2 -2 -22 6 -44 22 -63 34 -157 38 -294 4 -121 3 -125 -23
-163 -43 -63 -69 -92 -79 -89 -5 2 -25 -11 -43 -27 -39 -35 -80 -65 -90 -65
-4 0 26 33 66 73 65 65 75 80 94 143 32 107 35 150 17 253 -36 209 -135 334
-301 382 l-60 18 73 0 c39 1 72 5 72 9 0 5 -18 15 -41 22 -38 13 -40 16 -35
43 3 16 6 36 6 43 0 20 165 -82 220 -136z m-1656 29 c-14 -52 -32 -121 -40
-154 -23 -95 -36 -93 -32 5 3 67 9 98 31 145 31 67 57 109 63 103 2 -2 -8 -47
-22 -99z m5207 74 c60 -68 59 -60 59 -298 0 -255 0 -253 -97 -327 -109 -84
-106 -82 -160 -62 -51 19 -132 75 -171 117 -23 24 -24 31 -23 189 l1 163 42
38 c72 63 282 206 304 207 11 0 31 -12 45 -27z m-3818 -122 c90 -23 144 -50
174 -85 13 -14 28 -26 33 -26 17 0 69 -121 81 -188 7 -39 8 -71 2 -89 -8 -24
-11 -15 -22 63 -17 122 -30 137 -23 26 7 -133 -30 -264 -93 -322 -25 -23 -23
-18 14 53 41 78 52 127 29 127 -10 0 -10 2 0 9 35 21 -26 207 -97 296 -10 13
-6 11 12 -5 35 -31 93 -149 102 -210 4 -25 11 -52 16 -60 13 -21 2 48 -22 140
-44 165 -124 245 -266 266 -26 3 -55 10 -63 15 -28 16 44 10 123 -10z m448
-96 c18 -27 24 -43 15 -36 -25 21 -28 9 -9 -38 14 -35 14 -44 3 -51 -15 -9
-42 20 -54 58 -4 12 -11 22 -15 22 -21 0 -31 51 -19 96 l12 45 18 -23 c10 -13
32 -45 49 -73z m-376 5 c3 -5 1 -10 -4 -10 -6 0 -11 5 -11 10 0 6 2 10 4 10 3
0 8 -4 11 -10z m-72 -62 c80 -82 138 -184 136 -241 0 -12 -7 0 -16 28 -23 77
-109 194 -158 216 -38 17 -38 18 -12 18 16 1 37 -8 50 -21z m118 -61 c36 -62
58 -119 58 -147 l-1 -25 -7 26 c-13 40 -31 70 -82 135 -27 34 -49 64 -49 67 0
3 13 2 28 -4 18 -6 38 -26 53 -52z m989 4 c0 -17 -18 -21 -24 -6 -3 9 0 15 9
15 8 0 15 -4 15 -9z m-1170 -110 c0 -15 7 -36 15 -47 8 -10 15 -28 15 -38 0
-22 -31 -96 -40 -96 -4 0 -12 33 -19 73 -7 39 -15 78 -17 85 -5 19 7 42 23 42
8 0 11 5 7 12 -4 7 -3 8 4 4 7 -4 12 -20 12 -35z m60 24 c0 -8 4 -15 9 -15 17
0 34 -102 22 -132 -6 -16 -15 -28 -20 -28 -18 0 -59 159 -46 179 9 16 35 13
35 -4z m83 -109 c2 -49 -16 -97 -43 -114 -19 -11 -19 -10 2 29 18 34 20 52 16
117 -6 75 -5 76 9 43 8 -19 15 -53 16 -75z m857 -42 c0 -17 -22 -14 -28 4 -2
7 3 12 12 12 9 0 16 -7 16 -16z m-289 -30 c4 -16 7 -46 8 -66 l1 -38 -30 32
c-32 33 -37 57 -19 89 14 27 33 19 40 -17z m-1465 -206 c-9 -226 -3 -253 66
-282 65 -27 61 -40 -9 -33 -49 5 -63 11 -87 38 -27 30 -28 35 -23 103 17 231
28 352 33 370 6 18 7 18 17 1 6 -12 8 -80 3 -197z m938 180 c-23 -41 -59 -80
-87 -95 -27 -14 -24 -8 21 35 28 27 52 55 52 61 0 6 5 11 11 11 5 0 7 -6 3
-12z m-1024 -93 c0 -34 3 -83 6 -109 7 -50 -9 -65 -25 -23 -8 20 -16 14 -118
-88 -60 -60 -146 -152 -192 -202 -61 -68 -90 -93 -107 -93 -13 0 -24 5 -24 10
0 6 7 10 15 10 9 0 25 16 37 36 12 21 26 33 34 30 8 -3 13 -2 13 2 -4 22 5 41
34 73 17 20 39 47 47 59 8 12 21 28 28 36 6 7 12 19 12 27 0 8 7 20 15 27 9 7
13 20 10 28 -3 7 6 28 20 44 20 23 24 38 20 58 -3 16 -1 31 4 35 6 3 11 16 12
28 0 12 3 16 6 9 2 -6 9 -10 14 -6 5 3 3 12 -5 20 -16 15 -30 19 -22 6 2 -4 1
-14 -5 -22 -7 -12 -9 -10 -9 8 0 13 -4 20 -10 17 -5 -3 -10 1 -10 10 0 10 5
13 12 9 7 -4 23 -8 37 -9 29 -2 101 23 101 35 0 4 11 5 25 2 23 -4 25 -8 25
-67z m2485 65 c4 -6 11 -8 16 -5 12 8 11 -1 -3 -24 -9 -15 -9 -25 0 -45 15
-34 -2 -35 -52 -1 -20 14 -40 25 -45 25 -4 0 -16 9 -26 20 -18 19 -17 20 7 20
13 0 33 -7 44 -15 26 -19 36 -19 33 3 -3 33 12 45 26 22z m-385 -19 c6 -12 6
-22 1 -25 -5 -3 -12 1 -15 10 -9 23 -29 5 -23 -22 5 -30 1 -30 -13 -3 -9 16
-8 25 6 40 22 24 31 24 44 0z m460 -15 c0 -8 -9 -24 -19 -37 l-19 -24 -11 28
c-14 37 -15 36 12 46 25 10 37 6 37 -13z m-361 -68 c21 -29 56 -83 76 -120 36
-67 36 -67 19 -98 -10 -16 -21 -30 -25 -30 -13 0 -122 163 -136 202 -11 33
-12 47 -2 70 6 15 15 28 20 28 5 0 26 -24 48 -52z m-159 7 c0 -8 -7 -15 -15
-15 -16 0 -20 12 -8 23 11 12 23 8 23 -8z m-1490 -80 c0 -12 -37 -80 -55 -103
-4 -5 -35 10 -35 18 0 11 74 100 83 100 4 0 7 -7 7 -15z m-325 -155 c6 0 22
13 35 30 29 35 40 37 40 10 0 -11 5 -20 10 -20 6 0 10 -7 10 -15 0 -12 -13
-15 -61 -15 -59 0 -94 -16 -94 -44 0 -6 -10 -12 -22 -14 -30 -4 -29 9 2 38 14
13 27 39 30 59 14 84 18 89 29 29 5 -32 14 -58 21 -58z m49 94 c3 -9 -1 -25
-9 -37 -14 -21 -15 -20 -15 16 0 38 13 50 24 21z m2695 -71 c6 -21 19 -69 30
-108 10 -38 31 -119 46 -180 14 -60 35 -140 47 -178 11 -37 19 -69 17 -72 -3
-2 -32 10 -65 26 -38 19 -96 36 -155 46 -176 28 -201 35 -221 55 -17 17 -18
22 -6 40 17 25 86 48 144 48 35 0 45 -5 70 -36 16 -20 32 -41 35 -46 3 -4 23
-11 45 -13 21 -3 51 -8 67 -11 17 -3 27 -1 27 6 0 20 -61 254 -70 270 -8 13
-9 13 -10 -1 0 -9 5 -30 11 -47 8 -23 8 -36 -1 -49 -10 -15 -10 -14 -5 10 4
21 3 27 -6 21 -9 -5 -10 -2 -6 9 13 33 -91 103 -116 78 -16 -16 -37 -13 -57 9
-9 10 -28 19 -41 18 -13 -1 -64 -1 -112 0 -114 3 -107 22 8 22 75 0 89 3 127
28 168 110 181 114 197 55z m-2852 -45 c-3 -7 -5 -2 -5 12 0 14 2 19 5 13 2
-7 2 -19 0 -25z m430 -80 c15 -184 51 -310 109 -381 57 -71 60 -80 40 -145
-25 -77 -85 -194 -86 -165 0 12 11 53 25 91 34 95 34 109 -9 172 -50 75 -74
158 -91 324 -18 172 -19 184 -4 169 6 -6 13 -35 16 -65z m-503 -24 c9 -24 2
-26 -12 -4 -7 11 -8 20 -3 20 5 0 12 -7 15 -16z m2490 -46 c9 -12 16 -29 16
-38 0 -32 -179 -180 -218 -180 -19 0 -3 23 73 110 37 41 71 87 77 103 12 33
31 35 52 5z m-2374 -23 c-7 -9 -15 -13 -19 -10 -3 3 1 10 9 15 21 14 24 12 10
-5z m-495 -96 c42 -9 180 -50 343 -101 18 -5 31 -12 29 -14 -3 -3 -80 16 -173
42 -137 38 -188 48 -267 50 -54 2 -109 -1 -125 -7 -15 -6 -79 -15 -142 -19
-63 -5 -155 -18 -205 -29 -49 -11 -101 -20 -115 -20 l-25 0 24 10 c55 22 180
49 314 69 78 12 156 25 172 30 32 10 90 6 170 -11z m-1352 -66 c-7 -2 -19 -2
-25 0 -7 3 -2 5 12 5 14 0 19 -2 13 -5z m-110 -9 c3 -4 2 -15 -3 -25 -19 -34
-15 -98 7 -122 28 -30 45 -65 38 -77 -3 -5 -22 -3 -45 5 -35 12 -40 12 -40 -1
0 -8 22 -81 49 -162 31 -90 67 -233 95 -367 24 -121 52 -242 62 -268 l17 -48
-66 -127 c-72 -140 -127 -286 -127 -335 1 -38 52 -169 68 -175 7 -2 12 3 12
11 0 24 87 102 170 153 241 149 518 266 800 338 129 33 132 35 75 34 -52 -1
-71 4 -140 39 -44 23 -150 88 -236 145 -205 136 -201 133 -148 105 25 -13 60
-23 77 -22 17 1 29 -2 27 -6 -3 -3 8 -9 23 -12 56 -10 78 -17 166 -53 50 -21
134 -50 186 -65 52 -15 115 -35 139 -43 41 -15 244 -33 211 -19 -30 12 -35 43
-7 43 7 0 6 -4 -3 -10 -11 -7 -3 -11 30 -16 36 -6 41 -9 25 -16 -16 -7 -15 -7
5 -3 14 2 34 5 45 6 11 0 -2 7 -30 13 -49 12 -49 13 -20 20 17 4 43 13 59 19
23 8 31 8 34 -1 4 -14 38 -16 47 -2 4 6 42 7 98 3 51 -3 105 -5 122 -5 16 1
33 -4 37 -11 5 -9 10 -9 19 0 11 11 -10 19 -76 29 -11 2 -40 8 -65 15 -25 6
-72 13 -105 15 -33 2 -86 6 -118 10 -37 4 -63 2 -71 -5 -10 -9 -15 -8 -19 2
-3 8 22 37 62 72 l68 59 -59 49 c-33 27 -61 47 -63 45 -30 -29 -143 -196 -140
-205 2 -7 -2 -13 -10 -13 -8 0 -22 -13 -31 -30 -21 -35 -37 -42 -66 -30 -14 5
-17 9 -8 10 19 2 -18 19 -40 19 -9 0 -8 -4 5 -9 l20 -9 -20 0 c-11 0 -27 4
-35 9 -8 5 -10 10 -4 10 6 0 11 7 11 15 0 8 -6 15 -14 15 -7 0 -13 4 -13 9 0
6 16 7 37 4 31 -5 35 -4 30 10 -4 10 -2 17 5 17 6 0 5 6 -3 17 -12 14 -12 16
0 8 11 -7 13 -2 8 26 -4 21 -4 29 2 20 6 -10 10 -10 16 -1 4 6 -1 17 -11 24
-17 13 -16 14 7 21 24 8 39 22 39 39 0 5 -7 3 -15 -4 -12 -10 -15 -10 -15 3 0
8 4 17 10 19 14 5 -10 88 -26 88 -8 0 -14 5 -14 10 0 6 -7 10 -15 10 -16 0
-19 17 -9 45 5 12 9 13 14 5 5 -8 9 -7 13 4 4 9 2 16 -2 16 -5 0 -22 12 -38
28 -44 40 -190 113 -335 167 -71 26 -128 51 -128 56 0 5 -8 6 -17 3 -21 -7 2
13 107 93 124 94 131 97 193 83 96 -22 91 -17 63 -55 -19 -24 -23 -36 -14 -41
6 -4 13 -3 15 3 2 6 11 19 19 29 14 18 14 18 4 -4 -18 -36 0 -41 24 -7 11 16
37 45 56 64 30 29 32 33 12 28 -12 -3 -20 -1 -16 4 3 5 -2 9 -10 9 -9 0 -16 5
-16 10 0 13 -4 13 55 -10 28 -10 43 -19 35 -20 -15 0 -97 -97 -89 -104 21 -18
66 -29 137 -32 47 -3 87 -6 89 -8 2 -2 -12 -14 -32 -26 -38 -23 -38 -34 -2
-36 68 -5 115 -21 251 -88 215 -106 584 -331 746 -455 72 -56 104 -62 175 -36
46 16 115 20 115 6 0 -6 -21 -13 -47 -17 -92 -13 -81 -25 20 -21 63 2 97 -1
97 -8 0 -5 4 -4 9 4 6 9 11 10 15 2 4 -6 12 -9 17 -6 5 4 9 0 9 -7 1 -17 36
-63 49 -64 6 -1 15 -2 20 -3 19 -2 103 -89 97 -100 -4 -6 -1 -9 7 -6 7 3 25
-8 40 -25 15 -16 22 -30 16 -30 -7 0 -3 -8 9 -18 16 -14 18 -22 10 -30 -9 -9
-9 -12 1 -12 8 0 11 -6 7 -16 -3 -8 -2 -13 3 -10 15 9 19 -43 5 -61 -11 -15
-16 -16 -34 -5 -11 7 -25 10 -31 7 -12 -8 -70 40 -61 50 4 5 2 5 -4 2 -6 -3
-37 19 -70 50 -32 30 -79 71 -104 92 -25 20 -51 42 -59 49 -39 37 -173 133
-182 130 -5 -2 41 -44 103 -95 115 -93 338 -303 321 -303 -5 0 -15 6 -23 13
-10 8 -9 5 1 -8 9 -11 19 -28 22 -38 4 -11 12 -15 19 -11 8 5 9 2 5 -9 -5 -14
-2 -16 16 -14 12 2 16 2 9 0 -7 -3 -10 -8 -7 -13 3 -4 -3 -14 -12 -21 -14 -12
-16 -12 -11 2 4 9 1 16 -8 16 -7 0 -11 -4 -8 -9 7 -10 1 -10 -33 2 l-28 10 25
-19 c14 -11 36 -26 50 -33 14 -7 33 -18 42 -26 9 -8 23 -11 30 -6 7 4 10 4 7
0 -4 -4 21 -34 55 -67 l61 -60 -62 30 c-73 36 -82 38 -58 11 17 -18 12 -18
-41 6 -125 55 -331 129 -479 171 -79 22 -115 26 -295 30 -388 10 -661 -25
-1065 -136 -82 -23 -170 -44 -195 -47 -25 -4 -93 -21 -152 -40 -59 -19 -115
-34 -124 -34 -61 0 -378 -134 -481 -203 l-51 -34 -16 56 c-20 71 -20 91 -1
118 14 19 12 26 -20 79 -40 66 -52 117 -37 153 6 14 33 80 60 146 27 66 61
144 76 174 38 74 50 153 37 238 -6 37 -42 169 -81 293 -39 124 -75 257 -81
295 -6 39 -18 115 -27 170 -9 55 -16 120 -17 144 0 40 3 46 25 52 34 10 46 10
53 3z m1873 -73 c-23 -44 -37 -48 -30 -9 6 33 36 68 42 49 2 -5 -4 -23 -12
-40z m2514 -55 c0 -7 13 -30 30 -52 16 -21 30 -46 30 -54 0 -17 -66 -102 -93
-119 -10 -6 -57 -14 -105 -16 -197 -12 -239 -21 -281 -66 -16 -17 -21 -19 -21
-7 0 8 9 23 19 32 20 18 110 46 150 46 13 0 36 11 53 25 25 21 35 24 75 18 42
-6 45 -5 39 14 -5 17 -1 23 23 31 19 7 33 7 36 1 4 -5 11 -7 16 -3 5 3 7 9 5
13 -3 4 5 7 17 6 12 -1 25 3 29 9 11 16 10 38 -2 31 -5 -3 -19 3 -31 14 -20
19 -24 19 -58 5 -20 -8 -38 -15 -41 -14 -3 0 -13 -7 -23 -15 -20 -17 -27 -19
-27 -6 0 5 29 31 65 57 35 26 67 54 69 61 7 16 26 8 26 -11z m-4387 -126 c3
-11 1 -18 -4 -14 -5 3 -9 12 -9 20 0 20 7 17 13 -6z m1611 -45 c8 -9 20 -14
27 -13 6 2 14 -3 17 -11 3 -10 0 -12 -12 -8 -10 4 -24 7 -32 7 -9 0 -12 5 -9
10 3 6 -1 10 -9 10 -8 0 -18 5 -21 10 -10 16 22 12 39 -5z m-34 -15 c0 -12 67
-30 86 -23 7 3 11 9 8 14 -3 5 2 6 11 3 14 -6 14 -8 -1 -19 -15 -10 -11 -12
27 -12 112 -1 511 -220 768 -423 66 -52 121 -97 121 -100 0 -9 -185 -50 -223
-50 -29 0 -63 18 -164 87 -249 168 -300 201 -451 291 -83 51 -153 92 -155 92
-2 0 -48 25 -102 55 -55 30 -92 55 -83 55 9 0 20 -4 23 -10 3 -5 18 -10 33
-10 21 0 24 2 12 10 -12 8 -10 10 9 10 16 0 21 4 18 14 -3 8 -3 17 0 20 10 10
63 7 63 -4z m-185 -20 c3 -6 -1 -7 -9 -4 -18 7 -21 14 -7 14 6 0 13 -4 16 -10z
m922 -88 c7 -71 -3 -120 -19 -104 -13 13 -24 143 -14 168 12 30 27 0 33 -64z
m3793 -117 c-7 -8 -17 -15 -23 -15 -6 0 -2 7 9 15 25 19 30 19 14 0z m-1680
-87 c0 -11 -8 -18 -20 -18 -23 0 -25 12 -8 40 13 21 28 10 28 -22z m1500 -73
c-7 -8 -17 -15 -22 -15 -6 0 -5 7 2 15 7 8 17 15 22 15 6 0 5 -7 -2 -15z m20
-19 c0 -2 -7 -7 -16 -10 -8 -3 -12 -2 -9 4 6 10 25 14 25 6z m-4776 -22 c20
-8 11 -24 -15 -24 -19 0 -25 11 -12 23 8 8 8 8 27 1z m4525 -56 c0 7 5 10 11
7 5 -3 20 -1 32 6 16 8 11 -2 -16 -30 -22 -22 -42 -38 -45 -35 -3 3 1 9 9 14
10 7 11 10 3 10 -9 0 -13 15 -12 43 l2 42 7 -35 c4 -19 8 -29 9 -22z m-5164
-46 c-3 -3 -11 0 -18 7 -9 10 -8 11 6 5 10 -3 15 -9 12 -12z m5535 -87 c7 -9
8 -15 2 -15 -5 0 -12 7 -16 15 -3 8 -4 15 -2 15 2 0 9 -7 16 -15z m301 -28
c-10 -9 -11 -8 -5 6 3 10 9 15 12 12 3 -3 0 -11 -7 -18z m-6765 -44 c-22 -76
-27 -113 -22 -148 10 -60 53 -237 88 -355 17 -58 32 -110 34 -117 2 -8 34 -12
101 -11 131 0 135 -1 159 -52 28 -57 39 -170 36 -351 l-3 -147 43 -21 c25 -11
52 -21 61 -21 22 0 22 -9 0 -26 -23 -18 -77 -17 -135 1 -42 12 -54 12 -99 -1
-31 -9 -67 -30 -90 -52 -38 -36 -39 -38 -27 -69 14 -38 8 -49 -20 -34 -17 9
-20 6 -26 -27 -3 -20 -6 -65 -6 -99 0 -59 1 -63 38 -94 l38 -32 -72 -135 c-40
-74 -89 -181 -110 -236 -34 -91 -44 -107 -99 -161 -46 -44 -66 -73 -79 -110
-19 -60 -46 -206 -46 -255 0 -26 -3 -31 -10 -20 -7 11 -10 6 -11 -20 -1 -31
-2 -32 -8 -10 l-7 25 -8 -22 c-4 -13 -15 -23 -24 -24 -9 -1 -31 -2 -48 -4 -25
-2 -40 6 -75 40 -24 24 -55 61 -69 84 -14 23 -49 74 -78 112 -70 93 -86 145
-86 289 -1 90 3 127 19 170 17 49 19 78 17 249 -2 244 9 350 42 416 52 103 89
128 191 128 82 0 131 -21 153 -66 18 -37 32 -129 32 -209 0 -38 4 -68 8 -68
12 0 40 53 44 84 3 15 11 32 19 37 12 7 12 9 -1 9 -10 0 -11 3 -4 8 6 4 20 23
30 42 16 31 19 62 20 271 l2 236 31 64 c28 58 96 147 106 137 2 -2 13 -24 24
-48 16 -38 20 -41 20 -19 1 14 -10 54 -24 89 -36 92 -115 402 -115 452 0 46
28 138 43 138 4 0 6 -8 3 -17z m724 -42 c0 -114 -27 -127 -32 -16 -3 66 -1 75
15 75 14 0 17 -9 17 -59z m5965 49 c-9 -14 8 -13 23 2 7 7 12 10 12 7 0 -3
-11 -16 -26 -30 -21 -19 -24 -20 -18 -5 5 14 4 17 -4 12 -7 -4 -12 -3 -12 3 0
5 6 12 13 14 18 8 19 8 12 -3z m-5209 -12 c-8 -4 -25 -4 -38 1 -20 8 -18 9 15
8 24 -1 32 -4 23 -9z m507 -15 c-7 -2 -19 -2 -25 0 -7 3 -2 5 12 5 14 0 19 -2
13 -5z m142 -3 c12 -5 -1 -6 -35 -3 -30 3 -57 7 -59 9 -9 8 75 2 94 -6z m4528
-22 c-2 -4 -10 -2 -17 5 -8 6 -12 15 -9 19 2 4 10 2 17 -5 8 -6 12 -15 9 -19z
m-2837 -65 c-37 -62 -145 -171 -196 -198 -17 -9 -30 -13 -30 -11 0 3 12 12 28
20 42 22 128 113 179 189 25 37 47 66 50 64 2 -3 -12 -31 -31 -64z m-3158 -54
c2 -11 -22 -35 -66 -68 -38 -28 -72 -51 -76 -51 -12 0 -5 27 19 77 20 39 30
50 44 46 10 -3 22 0 26 7 10 16 49 8 53 -11z m649 -45 c-3 -3 -12 -4 -19 -1
-8 3 -5 6 6 6 11 1 17 -2 13 -5z m-142 -52 c-3 -3 -11 0 -18 7 -9 10 -8 11 6
5 10 -3 15 -9 12 -12z m2234 -189 c0 -10 -3 -13 -5 -7 -4 9 -14 9 -39 2 -19
-6 -41 -7 -52 -2 -14 6 -6 10 32 14 28 4 53 8 58 8 4 1 7 -6 6 -15z m-94 -23
c3 -5 1 -10 -5 -10 -6 0 -8 -4 -5 -10 8 -13 -5 -13 -25 0 -13 8 -12 10 3 10
10 0 15 5 12 10 -3 6 -2 10 4 10 5 0 13 -4 16 -10z m63 -32 c18 -18 15 -24
-15 -22 -18 0 -29 7 -31 17 -4 20 28 23 46 5z m-14 -50 c-8 -13 11 -9 25 5 11
10 11 8 2 -10 -6 -13 -7 -24 -2 -27 5 -4 11 -1 13 6 3 8 6 9 11 1 15 -24 -22
-20 -53 6 -28 23 -30 27 -12 27 11 0 18 -4 16 -8z m110 -83 c-4 -8 -11 -12
-16 -9 -6 4 -5 10 3 15 19 12 19 11 13 -6z m39 -69 c26 -8 86 -20 134 -26 85
-13 163 -41 163 -59 0 -24 -194 -24 -255 -1 -27 10 -115 95 -115 111 0 8 3 9
14 0 7 -6 34 -17 59 -25z m-1180 -23 c-7 -2 -19 -2 -25 0 -7 3 -2 5 12 5 14 0
19 -2 13 -5z m95 -10 c-10 -2 -26 -2 -35 0 -10 3 -2 5 17 5 19 0 27 -2 18 -5z
m85 -10 c-7 -2 -21 -2 -30 0 -10 3 -4 5 12 5 17 0 24 -2 18 -5z m-238 -143
c50 -6 116 -18 149 -26 69 -18 169 -54 164 -60 -3 -2 -60 10 -127 27 -68 16
-171 36 -229 45 -169 23 -136 34 43 14z m-1500 -18 c-6 -5 -41 -29 -80 -55
-38 -25 -107 -80 -152 -122 -90 -84 -116 -91 -30 -9 59 58 150 128 217 167 46
27 62 34 45 19z m1585 -86 c69 -21 161 -57 205 -80 81 -43 243 -155 244 -168
2 -22 -55 -2 -149 52 -183 104 -341 154 -527 166 -58 4 -100 11 -97 16 13 20
-33 37 -101 39 -63 2 -66 3 -30 10 22 4 105 6 185 5 134 -3 154 -6 270 -40z
m887 -101 c112 -100 118 -103 153 -70 24 23 28 24 34 10 10 -28 7 -35 -19 -35
-13 0 -36 -5 -50 -12 -25 -11 -30 -8 -120 85 -51 53 -91 97 -87 97 4 0 44 -34
89 -75z m2844 -6 c-10 -37 -8 -59 4 -59 9 0 12 -11 8 -37 -2 -21 3 -65 12 -98
69 -247 70 -305 10 -450 -8 -19 -7 -19 11 -5 10 8 4 -2 -14 -23 -18 -21 -30
-42 -28 -46 3 -4 -76 -82 -175 -172 -99 -90 -226 -206 -282 -257 -111 -102
-166 -145 -151 -120 5 9 56 58 114 109 58 52 113 103 122 115 9 11 71 69 137
128 85 76 121 115 121 130 0 21 -35 60 -94 104 -33 25 -46 28 -46 8 0 -12 -80
-85 -250 -226 -36 -29 -89 -76 -117 -104 -29 -27 -55 -47 -58 -44 -7 6 181
198 289 296 66 59 77 74 67 86 -15 18 -29 404 -15 428 10 17 182 168 192 168
3 0 -14 -21 -38 -47 -66 -68 -12 -28 81 61 74 70 110 90 100 55z m-3789 -20
c44 -12 77 -23 75 -26 -3 -2 -40 5 -83 16 -44 11 -90 22 -104 24 -23 4 -22 4
4 6 16 0 65 -9 108 -20z m-52 -24 c134 -31 267 -94 400 -190 63 -45 64 -45 25
-8 -22 21 -58 53 -80 71 l-40 33 50 -32 c28 -18 77 -54 110 -79 33 -26 92 -68
130 -93 39 -25 90 -64 114 -86 24 -23 47 -41 52 -41 4 0 11 -10 15 -22 3 -12
16 -30 28 -41 11 -10 14 -15 6 -11 -8 4 -56 45 -107 91 -51 46 -98 83 -104 83
-7 0 -26 10 -43 23 -81 61 -72 45 11 -21 77 -60 348 -306 370 -336 l17 -22 36
35 c20 20 46 43 59 52 l22 17 -28 22 c-15 12 -26 25 -24 28 2 4 -6 12 -18 18
-12 6 -49 40 -84 75 -64 67 -240 199 -264 199 -8 0 -27 -7 -43 -15 -27 -14
-32 -14 -53 0 -25 16 -47 55 -47 83 0 23 57 53 101 54 19 0 39 5 46 10 7 5 19
6 27 1 45 -25 283 -254 366 -353 54 -64 112 -127 129 -140 41 -32 179 -190
266 -305 37 -49 81 -98 96 -107 45 -28 50 -45 13 -52 -11 -2 -45 -16 -78 -30
-32 -14 -67 -26 -77 -26 -24 0 -24 -2 2 -52 14 -28 19 -51 15 -72 -3 -17 -3
-26 2 -20 9 15 21 9 114 -51 46 -30 78 -57 78 -67 0 -25 -92 -88 -130 -88 -9
0 -75 106 -89 142 -7 18 -6 29 2 37 8 8 8 11 -1 11 -7 0 -12 -4 -12 -10 0 -14
-36 -12 -60 3 -14 8 -23 9 -28 2 -4 -5 -28 -17 -54 -26 -46 -16 -50 -16 -88 3
-22 11 -40 24 -40 28 0 4 -8 10 -18 12 -17 5 -18 3 -4 -41 25 -81 30 -101 27
-101 -10 0 -59 101 -101 208 -70 177 -70 145 0 -88 14 -47 22 -86 18 -88 -5
-1 -6 -31 -4 -67 5 -82 -1 -100 -28 -85 -26 14 -54 75 -79 170 -26 97 -48 169
-62 200 -14 29 -25 59 -32 81 -6 17 -96 36 -150 30 -19 -2 -28 2 -26 11 4 33
0 41 -17 28 -13 -11 -16 -10 -21 8 -3 12 -10 22 -15 22 -10 0 -6 -28 8 -64 10
-25 -21 -20 -39 7 -21 31 -27 20 -17 -33 5 -25 14 -81 20 -125 6 -44 14 -90
17 -103 4 -18 -2 -25 -38 -42 -24 -11 -52 -20 -61 -20 -18 0 -51 30 -128 116
-56 62 -160 157 -166 151 -3 -2 25 -33 62 -68 36 -35 75 -77 87 -94 l20 -30
-29 26 c-35 32 -103 69 -124 68 -9 0 -10 -2 -3 -5 7 -3 10 -11 7 -19 -3 -7 9
-38 26 -69 17 -30 29 -60 25 -65 -3 -6 1 -26 9 -46 9 -21 11 -35 5 -35 -6 0
-3 -7 5 -16 18 -18 20 -32 6 -54 -8 -13 -14 -13 -52 0 l-43 15 -33 -38 c-17
-22 -29 -43 -26 -48 3 -5 -2 -9 -11 -9 -9 0 -13 -4 -10 -10 3 -5 -2 -10 -12
-11 -12 0 -7 -5 13 -14 17 -8 34 -23 37 -34 6 -26 -3 -72 -14 -65 -5 3 -9 2
-9 -3 0 -7 68 -43 82 -43 3 0 20 39 37 87 34 95 60 147 61 123 0 -18 -43 -187
-62 -245 -14 -42 -33 -49 -87 -31 -15 5 -21 5 -17 -2 3 -6 0 -13 -6 -16 -7 -3
-2 -3 12 0 19 5 22 4 14 -6 -13 -14 -58 -4 -49 11 3 5 -1 6 -10 3 -17 -7 -110
16 -175 42 -62 25 -192 54 -241 54 -56 0 -139 36 -139 60 0 8 12 23 26 31 l27
17 -54 10 c-334 64 -422 82 -434 92 -16 14 -14 33 22 170 14 52 40 154 58 226
46 178 75 248 104 252 20 3 23 0 18 -20 -19 -73 -28 -130 -23 -135 8 -9 17 2
20 23 2 10 9 20 17 22 11 3 11 1 -1 -7 -36 -26 5 -8 62 27 74 45 131 63 216
66 57 3 62 1 62 -18 0 -12 9 -43 19 -71 l20 -50 -2 70 c-2 78 -3 77 73 60 19
-4 32 -4 29 -1 -10 11 -138 43 -233 60 -49 9 -91 17 -93 20 -2 2 9 12 25 22
26 15 52 51 52 71 0 3 -14 -9 -30 -27 -20 -21 -36 -30 -46 -26 -11 4 -15 2
-11 -8 5 -12 -1 -12 -31 -4 -20 6 -40 15 -44 22 -6 8 -8 7 -8 -1 0 -7 -7 -13
-16 -13 -8 0 -13 4 -9 9 3 6 -11 13 -30 17 -43 8 -68 40 -61 80 2 16 5 29 6
29 1 0 4 17 5 37 5 67 -56 83 -202 53 -40 -8 -98 -14 -130 -13 -57 3 -58 3
-60 34 -3 28 4 37 52 73 30 23 55 49 55 57 0 9 -5 12 -12 8 -44 -26 -127 -94
-204 -166 -65 -61 -78 -70 -49 -35 22 26 40 53 40 60 0 7 6 23 14 36 12 22 11
26 -5 38 -9 7 -14 16 -10 20 4 4 11 1 15 -6 5 -8 11 -9 15 -3 3 6 1 12 -6 14
-21 7 95 103 173 143 44 23 155 65 171 65 4 0 4 -23 1 -50 -9 -73 8 -100 62
-100 23 0 64 7 91 15 61 18 265 55 313 56 27 1 30 3 12 6 -28 5 -226 -22 -316
-43 -81 -19 -131 -18 -139 2 -3 9 -6 33 -6 55 0 100 147 143 485 143 153 0
194 -3 270 -22 140 -35 355 -148 540 -284 l40 -29 -38 33 c-76 66 -214 158
-297 199 -216 106 -411 142 -630 118 -58 -6 -121 -12 -140 -13 -34 -1 -35 1
-38 37 -3 34 -6 38 -25 33 -79 -20 -131 -27 -173 -24 l-49 3 70 27 c76 29 261
70 420 93 118 17 308 12 405 -10z m-1325 -58 c-16 -12 -52 -43 -80 -69 -51
-48 -84 -66 -49 -27 33 37 134 119 147 119 7 0 -1 -11 -18 -23z m4227 -42 c49
-20 101 -48 166 -91 6 -3 -318 -324 -327 -324 -10 0 -16 38 -31 180 -17 165
-16 174 30 220 48 48 74 51 162 15z m-4499 -6 c46 -12 49 -23 3 -15 -34 6 -36
5 -101 -79 -60 -76 -95 -104 -95 -75 0 6 23 51 51 100 56 99 43 93 142 69z
m2624 -29 c-14 -11 -31 -20 -39 -20 -7 0 1 9 17 19 40 26 54 26 22 1z m1660
-82 c-3 -8 -6 -5 -6 6 -1 11 2 17 5 13 3 -3 4 -12 1 -19z m-273 -198 c-6 -5
-24 21 -24 34 0 6 6 1 14 -10 8 -10 12 -21 10 -24z m-4315 -37 c-12 -21 -29
-50 -38 -65 -16 -28 -31 -37 -31 -18 0 10 81 120 88 120 2 0 -6 -17 -19 -37z
m5981 -27 c0 -2 -8 -10 -17 -17 -16 -13 -17 -12 -4 4 13 16 21 21 21 13z
m-6071 -86 c19 0 17 -8 -30 -102 -28 -55 -81 -142 -119 -192 -62 -83 -110
-137 -110 -124 0 25 61 184 104 273 68 138 91 169 116 155 10 -6 28 -10 39
-10z m2971 -59 c0 -12 -20 -25 -27 -18 -7 7 6 27 18 27 5 0 9 -4 9 -9z m778
-44 c2 -9 -1 -17 -7 -17 -6 0 -7 7 -4 17 4 11 3 14 -5 9 -7 -4 -12 -2 -12 4 0
18 25 6 28 -13z m1023 -88 c55 -35 66 -61 47 -107 l-13 -32 -55 40 -55 41 4
77 c4 69 5 74 14 45 7 -23 25 -42 58 -64z m19 -269 c9 -17 8 -20 -9 -20 -11 0
-25 9 -31 20 -9 17 -8 20 9 20 11 0 25 -9 31 -20z m-5153 -77 c-16 -32 -62
-169 -76 -228 -8 -31 -9 -20 -4 50 5 94 24 151 64 194 27 29 35 21 16 -16z
m3061 0 c9 -9 9 -14 1 -19 -8 -5 -7 -10 5 -16 20 -12 21 -34 0 -42 -22 -9 -36
2 -33 27 1 12 -1 30 -5 40 -18 48 -18 51 1 36 10 -8 24 -19 31 -26z m960 17
c35 -22 91 -102 128 -187 29 -65 30 -73 4 -73 -12 0 -30 16 -46 43 -15 23 -40
59 -57 80 -27 35 -33 38 -64 32 -49 -9 -85 16 -77 53 4 15 13 32 21 39 8 6 13
16 10 20 -11 18 49 12 81 -7z m1395 -10 c117 -31 194 -70 140 -70 -19 0 -243
86 -252 97 -3 3 5 3 19 -2 14 -4 55 -15 93 -25z m-1613 -50 c-8 -5 -19 -10
-25 -10 -5 0 -3 5 5 10 8 5 20 10 25 10 6 0 3 -5 -5 -10z m-710 -65 c11 -13
10 -18 -3 -28 -14 -11 -13 -16 9 -49 13 -21 31 -38 39 -38 8 0 15 -8 15 -18 0
-10 5 -23 12 -30 19 -19 1 -26 -24 -10 -38 25 -76 89 -83 141 -6 38 -4 47 8
47 8 0 20 -7 27 -15z m390 -120 c0 -5 -5 -3 -10 5 -5 8 -10 20 -10 25 0 6 5 3
10 -5 5 -8 10 -19 10 -25z m890 -38 c53 -71 51 -82 -6 -27 -55 54 -71 80 -50
80 9 0 33 -24 56 -53z m-4449 -69 c3 -42 -3 -133 -8 -142 -3 -5 -9 -2 -12 5
-10 20 -1 159 10 159 5 0 10 -10 10 -22z m4300 -24 c38 -19 33 -35 -16 -52
-59 -19 -185 9 -185 43 0 19 16 23 98 24 48 1 83 -4 103 -15z m-254 -59 c27
-29 59 -102 49 -112 -1 -1 -16 -6 -34 -9 -29 -6 -31 -4 -34 27 -2 21 -8 33
-15 32 -7 -2 -13 6 -13 16 0 11 -10 27 -22 35 -12 9 -17 16 -10 16 7 0 11 4 7
9 -4 8 4 13 35 20 3 0 19 -15 37 -34z m-637 -104 c0 -15 -30 -21 -51 -11 -27
15 -24 20 16 20 19 0 35 -4 35 -9z m50 -20 c16 -31 12 -56 -14 -80 -33 -31
-173 -43 -195 -17 -20 24 1 43 65 56 30 6 67 22 82 35 33 30 48 31 62 6z
m-3462 -44 c2 -37 0 -47 -12 -47 -12 0 -16 12 -16 51 0 66 24 62 28 -4z m2820
-84 c-4 -37 -17 -98 -29 -135 -16 -53 -25 -68 -40 -68 -10 0 -19 2 -19 4 0 3
13 44 29 93 16 48 35 109 42 135 18 66 27 51 17 -29z m1692 -29 c0 -16 -36 2
-65 32 -52 53 -42 62 15 14 28 -23 50 -44 50 -46z m-4510 -44 c0 -47 -4 -80
-10 -80 -6 0 -10 33 -10 80 0 47 4 80 10 80 6 0 10 -33 10 -80z m5340 64 c0
-12 -9 -14 -42 -12 -59 4 -63 28 -4 28 35 0 46 -4 46 -16z"/>
<path d="M3637 7506 c-37 -7 -70 -16 -75 -21 -11 -12 121 3 164 19 38 14 38
15 9 14 -16 0 -60 -6 -98 -12z"/>
<path d="M2120 7079 c0 -5 5 -7 10 -4 6 3 10 8 10 11 0 2 -4 4 -10 4 -5 0 -10
-5 -10 -11z"/>
<path d="M1290 6204 c-25 -13 -72 -34 -105 -47 -36 -13 -53 -23 -42 -25 19 -4
147 54 182 82 28 22 17 19 -35 -10z"/>
<path d="M4443 6319 c5 -20 1 -28 -21 -41 -15 -9 -45 -35 -67 -57 l-39 -41 54
-1 c30 0 81 -4 113 -8 31 -4 57 -3 57 1 0 17 -69 145 -86 159 -16 13 -17 12
-11 -12z"/>
<path d="M5237 6096 c3 -16 10 -23 19 -19 17 6 18 15 2 31 -19 19 -26 14 -21
-12z"/>
<path d="M5454 6083 c-20 -20 -45 -55 -54 -77 -29 -66 -42 -180 -31 -261 6
-39 11 -124 11 -190 l0 -121 30 -11 30 -11 0 123 c0 95 -3 125 -15 135 -20 17
-45 109 -45 168 0 49 13 76 23 50 3 -7 6 14 6 48 1 48 7 69 30 106 16 25 39
49 50 53 12 3 21 11 21 16 0 18 -20 8 -56 -28z"/>
<path d="M5411 5854 c0 -11 3 -14 6 -6 3 7 2 16 -1 19 -3 4 -6 -2 -5 -13z"/>
<path d="M2082 5681 c-29 -22 -84 -56 -124 -75 -82 -42 -76 -49 9 -9 64 30
173 102 173 115 0 12 -1 11 -58 -31z"/>
<path d="M1770 5596 c0 -2 7 -7 16 -10 8 -3 12 -2 9 4 -6 10 -25 14 -25 6z"/>
<path d="M1848 5563 c6 -2 18 -2 25 0 6 3 1 5 -13 5 -14 0 -19 -2 -12 -5z"/>
<path d="M2856 5605 c-9 -26 -7 -32 5 -12 6 10 9 21 6 23 -2 3 -7 -2 -11 -11z"/>
<path d="M2773 5078 c2 -58 7 -82 19 -95 25 -24 32 -10 13 26 -9 17 -20 57
-25 89 l-9 57 2 -77z"/>
<path d="M4056 5500 c49 -28 97 -77 123 -128 7 -13 15 -21 18 -19 2 3 -11 30
-30 59 -34 54 -114 118 -146 118 -9 0 7 -13 35 -30z"/>
<path d="M5870 4600 c-9 -6 -10 -10 -3 -10 6 0 15 5 18 10 8 12 4 12 -15 0z"/>
<path d="M5813 4583 c-14 -5 -18 -23 -5 -23 5 0 17 7 28 15 14 11 15 14 4 14
-8 0 -21 -3 -27 -6z"/>
<path d="M2320 3621 c0 -5 7 -11 14 -14 10 -4 13 -1 9 9 -6 15 -23 19 -23 5z"/>
<path d="M2525 3568 c6 -17 4 -20 -9 -15 -17 7 -65 -48 -135 -152 -34 -51 -35
-54 -16 -67 10 -8 25 -14 32 -14 39 0 158 164 151 208 -3 14 5 17 45 15 l49
-1 -46 24 c-58 31 -80 32 -71 2z"/>
<path d="M2665 3524 c36 -27 50 -39 73 -68 12 -16 25 -26 29 -22 8 8 -93 106
-109 106 -7 0 -4 -7 7 -16z"/>
<path d="M1810 3356 c0 -2 7 -7 16 -10 8 -3 12 -2 9 4 -6 10 -25 14 -25 6z"/>
<path d="M2780 3196 c0 -2 7 -7 16 -10 8 -3 12 -2 9 4 -6 10 -25 14 -25 6z"/>
<path d="M3128 3183 c7 -3 16 -2 19 1 4 3 -2 6 -13 5 -11 0 -14 -3 -6 -6z"/>
<path d="M2738 3173 c12 -2 30 -2 40 0 9 3 -1 5 -23 4 -22 0 -30 -2 -17 -4z"/>
<path d="M2768 3153 c6 -2 18 -2 25 0 6 3 1 5 -13 5 -14 0 -19 -2 -12 -5z"/>
<path d="M2898 3143 c12 -2 32 -2 45 0 12 2 2 4 -23 4 -25 0 -35 -2 -22 -4z"/>
<path d="M3830 2850 c0 -5 5 -10 11 -10 5 0 7 5 4 10 -3 6 -8 10 -11 10 -2 0
-4 -4 -4 -10z"/>
<path d="M3890 2826 c0 -2 8 -10 18 -17 15 -13 16 -12 3 4 -13 16 -21 21 -21
13z"/>
<path d="M1455 2730 c-3 -6 1 -7 9 -4 18 7 21 14 7 14 -6 0 -13 -4 -16 -10z"/>
<path d="M1365 2677 c-27 -17 -68 -50 -91 -72 -39 -38 -41 -44 -43 -103 -1
-34 -6 -74 -12 -89 -14 -37 -5 -39 32 -8 30 24 218 120 347 175 60 26 63 41 4
17 -40 -16 -122 -13 -122 5 0 5 -4 6 -10 3 -5 -3 -10 3 -10 14 0 20 -9 25 -40
22 -13 -2 -13 0 -1 8 20 13 22 51 3 43 -10 -3 -13 -1 -8 6 10 16 9 16 -49 -21z
m40 3 c-3 -5 -12 -10 -18 -10 -7 0 -6 4 3 10 19 12 23 12 15 0z"/>
<path d="M1670 2620 c-8 -5 -10 -10 -5 -10 6 0 17 5 25 10 8 5 11 10 5 10 -5
0 -17 -5 -25 -10z"/>
<path d="M5530 3979 c0 -5 5 -7 10 -4 6 3 10 8 10 11 0 2 -4 4 -10 4 -5 0 -10
-5 -10 -11z"/>
<path d="M2706 3915 c-11 -8 -17 -17 -14 -21 4 -3 16 4 27 15 24 24 15 28 -13
6z"/>
<path d="M2900 3890 c0 -5 7 -10 16 -10 8 0 12 5 9 10 -3 6 -10 10 -16 10 -5
0 -9 -4 -9 -10z"/>
<path d="M2660 3886 c0 -2 7 -7 16 -10 8 -3 12 -2 9 4 -6 10 -25 14 -25 6z"/>
<path d="M840 1858 c-12 -31 -23 -81 -26 -118 l-3 -65 10 64 c5 35 19 86 31
113 11 27 19 51 16 54 -3 2 -15 -19 -28 -48z"/>
<path d="M6830 1430 c-9 -6 -10 -10 -3 -10 6 0 15 5 18 10 8 12 4 12 -15 0z"/>
<path d="M2767 1711 c-35 -23 -43 -31 -29 -31 6 0 24 11 39 25 33 28 29 31
-10 6z"/>
<path d="M4095 1448 c-58 -20 -57 -24 11 -109 35 -44 64 -83 64 -87 0 -4 10
-18 23 -32 12 -14 37 -44 55 -67 37 -47 110 -108 118 -100 4 3 -4 16 -16 29
-16 17 -20 31 -16 53 5 23 4 27 -5 15 -9 -12 -10 -11 -6 8 4 16 -1 25 -16 34
-12 6 -26 17 -30 25 -5 7 -13 11 -19 7 -6 -4 -8 1 -3 15 5 16 3 20 -8 15 -14
-5 -34 12 -24 22 2 3 18 6 34 8 25 4 35 -2 53 -27 13 -17 23 -36 23 -43 0 -7
4 -11 8 -9 3 3 24 -20 45 -50 20 -30 44 -55 51 -55 14 0 -172 255 -236 323
-36 38 -55 43 -106 25z m92 -25 c7 -10 18 -27 25 -38 11 -20 11 -20 -11 -1
-11 11 -21 14 -21 8 0 -14 31 -31 48 -25 12 5 16 -8 12 -37 -1 -8 1 -12 6 -8
8 9 34 -10 34 -24 0 -6 -7 -5 -15 2 -10 9 -15 9 -15 1 0 -25 -45 -9 -77 27
-37 41 -40 52 -18 52 8 0 15 5 15 10 0 6 -15 10 -34 10 -63 0 -92 25 -38 33
57 9 75 6 89 -10z"/>
<path d="M3792 1280 c0 -14 2 -19 5 -12 2 6 2 18 0 25 -3 6 -5 1 -5 -13z"/>
<path d="M3823 1152 c-13 -2 -23 -10 -23 -18 0 -18 11 -18 36 0 22 17 18 23
-13 18z"/>
<path d="M3743 1143 c9 -2 17 -9 17 -14 0 -6 5 -7 10 -4 19 12 10 25 -17 24
-17 -1 -21 -3 -10 -6z"/>
<path d="M3491 1088 c5 -24 11 -65 12 -91 2 -27 8 -52 13 -55 5 -4 9 -13 10
-19 1 -7 2 -19 3 -27 1 -15 41 -30 41 -16 0 5 -8 15 -17 22 -10 7 -19 27 -19
43 -1 34 -34 166 -45 178 -4 5 -3 -11 2 -35z"/>
<path d="M3730 1101 c0 -5 7 -11 14 -14 10 -4 13 -1 9 9 -6 15 -23 19 -23 5z"/>
<path d="M2227 838 c-23 -66 -57 -179 -57 -191 0 -2 19 -7 43 -10 76 -9 390
-66 470 -86 43 -10 74 -14 68 -8 -6 6 -20 12 -31 14 -26 4 -70 32 -70 45 0 5
-5 6 -12 2 -8 -5 -9 -2 -5 9 4 12 1 17 -11 18 -10 0 -12 3 -5 6 9 3 10 10 3
24 -6 10 -8 19 -4 19 3 0 2 6 -3 13 -5 6 -15 30 -22 53 -11 35 -19 42 -49 50
-22 5 -41 18 -48 31 -6 13 -13 20 -17 17 -3 -3 -18 3 -34 14 -29 20 -62 30
-123 36 -19 2 -42 7 -51 11 -13 5 -22 -8 -42 -67z"/>
<path d="M2567 884 c-8 -8 1 -24 13 -24 4 0 10 7 14 15 5 15 -14 21 -27 9z"/>
<path d="M2855 789 c-4 -6 -5 -12 -2 -15 2 -3 7 2 10 11 7 17 1 20 -8 4z"/>
<path d="M3034 509 c-3 -6 -1 -16 5 -22 8 -8 11 -5 11 11 0 24 -5 28 -16 11z"/>
<path d="M2810 420 c8 -5 20 -10 25 -10 6 0 3 5 -5 10 -8 5 -19 10 -25 10 -5
0 -3 -5 5 -10z"/>
<path d="M5700 7773 c0 -81 5 -79 14 5 5 41 3 62 -4 62 -6 0 -10 -27 -10 -67z"/>
<path d="M6690 7833 c20 -3 31 -16 49 -58 13 -30 29 -55 35 -55 17 0 47 -38
33 -43 -6 -2 10 -9 35 -16 46 -13 58 -28 71 -86 3 -11 5 2 6 28 1 62 39 141
90 191 l40 39 153 -12 c84 -6 187 -16 228 -21 41 -5 152 -19 245 -31 153 -19
280 -40 328 -55 15 -5 17 2 17 60 l0 66 -511 0 c-405 0 -509 -3 -503 -12 6
-10 4 -10 -7 0 -9 9 -57 12 -173 11 -89 -1 -150 -4 -136 -6z"/>
<path d="M4508 7673 c7 -3 16 -2 19 1 4 3 -2 6 -13 5 -11 0 -14 -3 -6 -6z"/>
<path d="M4560 7658 c108 -46 259 -126 330 -173 73 -50 109 -77 223 -173 9 -8
17 -13 17 -10 0 4 -37 38 -82 78 -137 118 -287 211 -436 266 -62 24 -99 32
-52 12z"/>
<path d="M3750 7653 c-8 -3 -39 -15 -68 -25 -72 -27 -61 -32 13 -6 33 11 98
23 145 28 l85 7 -80 1 c-44 0 -87 -2 -95 -5z"/>
<path d="M6926 7517 c3 -10 9 -15 12 -12 3 3 0 11 -7 18 -10 9 -11 8 -5 -6z"/>
<path d="M5207 7359 c7 -7 15 -10 18 -7 3 3 -2 9 -12 12 -14 6 -15 5 -6 -5z"/>
<path d="M5260 7326 c0 -2 8 -10 18 -17 15 -13 16 -12 3 4 -13 16 -21 21 -21
13z"/>
<path d="M5560 7246 c0 -3 32 -15 70 -27 43 -13 93 -38 128 -63 95 -70 206
-216 233 -304 7 -23 14 -40 17 -38 10 11 -34 113 -74 175 l-45 66 46 -50 c65
-71 107 -151 154 -295 55 -172 63 -206 71 -350 5 -94 8 -117 14 -92 9 33 20
41 30 20 3 -7 4 8 2 35 -2 26 0 47 5 47 4 0 25 -25 46 -55 47 -67 65 -72 27
-8 -32 56 -73 96 -90 89 -12 -5 -24 35 -39 129 -4 22 -18 78 -32 125 -14 47
-31 105 -38 130 -33 114 -99 215 -215 324 -93 88 -135 112 -211 126 -35 6 -72
13 -81 16 -10 3 -18 3 -18 0z"/>
<path d="M6395 6143 c8 -18 18 -33 20 -33 10 0 4 16 -16 40 l-20 25 16 -32z"/>
<path d="M6302 6118 c-1 -25 -11 -75 -22 -109 -26 -84 -18 -88 10 -5 14 42 20
81 17 113 l-3 48 -2 -47z"/>
<path d="M6206 5938 l-18 -33 21 25 c18 22 26 40 18 40 -1 0 -11 -15 -21 -32z"/>
<path d="M6186 5815 c-39 -35 -40 -50 -1 -17 21 17 50 52 44 52 -2 -1 -22 -16
-43 -35z"/>
<path d="M7020 5073 c0 -16 5 -35 10 -43 7 -11 10 -4 10 28 0 23 -4 42 -10 42
-5 0 -10 -12 -10 -27z"/>
<path d="M5821 3959 c-35 -47 -65 -122 -58 -141 3 -7 12 4 22 27 9 22 30 66
46 98 15 31 26 57 24 57 -3 0 -18 -18 -34 -41z"/>
<path d="M6620 3203 c-89 -91 -86 -92 18 -4 59 51 93 91 75 91 -5 0 -47 -39
-93 -87z"/>
<path d="M5380 3010 c0 -5 7 -10 16 -10 8 0 12 5 9 10 -3 6 -10 10 -16 10 -5
0 -9 -4 -9 -10z"/>
<path d="M5391 2981 c-10 -7 -13 -30 -9 -97 3 -49 3 -83 0 -76 -3 10 -7 8 -17
-5 -12 -17 -10 -43 4 -43 9 0 41 66 41 83 0 7 -4 6 -10 -3 -7 -11 -10 5 -10
51 0 37 5 70 12 77 15 15 7 24 -11 13z"/>
<path d="M5237 2953 c-10 -9 -9 -23 2 -23 5 0 11 7 15 15 5 15 -5 20 -17 8z"/>
<path d="M5294 2936 c7 -30 -12 -86 -30 -86 -19 0 -18 -9 3 -32 16 -18 17 -17
29 29 16 60 17 113 3 113 -7 0 -9 -9 -5 -24z"/>
<path d="M5312 2783 c-10 -4 -9 -9 4 -24 23 -25 36 -24 32 3 -3 23 -15 30 -36
21z"/>
<path d="M5370 2693 c0 -5 41 -57 91 -118 50 -60 106 -132 125 -160 18 -27 45
-63 59 -80 l26 -30 -17 30 c-10 17 -25 39 -34 50 -9 11 -29 41 -44 68 -15 26
-36 56 -47 66 -12 11 -18 24 -14 30 3 7 2 10 -3 9 -5 -2 -21 11 -35 28 -28 33
-35 50 -15 38 7 -4 8 -3 4 5 -4 6 -11 9 -16 6 -4 -3 -22 11 -39 30 -30 35 -41
42 -41 28z"/>
<path d="M5654 1866 c-8 -22 -2 -27 16 -16 12 7 12 12 3 21 -10 10 -14 9 -19
-5z"/>
</g>
</svg>
