<?xml version="1.0" encoding="UTF-8"?> <svg xmlns="http://www.w3.org/2000/svg" width="207" height="34" viewBox="0 0 207 34" fill="none"> <path d="M14.1352 6.8246C12.4984 8.22715 12.356 9.72166 12.356 11.7631C12.356 15.2495 11.5452 21.2347 18.2389 26.254C14.4039 20.6502 14.9069 15.2559 14.8981 11.3257C14.8925 9.33064 14.9748 7.64502 16.2238 6.00098C15.4786 6.1641 14.7629 6.3768 14.1352 6.8246Z" fill="white"></path> <path d="M21.006 28.33C19.4187 21.7434 19.6106 15.9621 19.6074 11.5345C19.6058 9.36672 19.5171 7.12136 20.1624 5.02393C19.4275 5.20624 18.6911 5.38856 17.9562 5.57087C16.8775 7.32446 16.9647 9.45628 16.9695 11.4322C16.9758 15.5615 16.6176 21.1373 19.4563 27.1681C19.9721 27.5551 20.4886 27.9421 21.006 28.33Z" fill="#D37F00"></path> <path d="M21.8948 4.59299C21.431 8.78306 21.6509 13.1027 21.6877 17.3127C21.7237 21.2925 21.8628 25.2778 22.2235 29.2432C22.9447 29.7846 23.0519 29.7846 23.7723 29.2432C24.133 25.2786 24.2729 21.2933 24.3081 17.3127C24.3449 13.1027 24.5648 8.78226 24.101 4.59299C23.203 4.3707 22.7944 4.3707 21.8948 4.59299Z" fill="#D37F00"></path> <path d="M24.9922 28.3303C25.5087 27.9424 26.0261 27.5554 26.5411 27.1676C29.379 21.14 29.0215 15.5682 29.0279 11.4317C29.0319 9.45579 29.1199 7.32398 28.0412 5.57039C27.3063 5.38807 26.5699 5.20575 25.835 5.02344C26.4811 7.12087 26.3915 9.36703 26.3899 11.534C26.3875 15.976 26.5795 21.7445 24.9922 28.3303Z" fill="#D37F00"></path> <path d="M33.6438 11.7631C33.6438 9.72166 33.5015 8.22715 31.8646 6.8246C31.2369 6.376 30.5212 6.1641 29.7768 6.00098C31.0258 7.64502 31.1082 9.33144 31.1026 11.3257C31.0938 15.1607 31.6167 20.6206 27.7617 26.254C34.3139 21.3403 33.6438 15.6285 33.6438 11.7631Z" fill="white"></path> <path d="M34.7241 12.8383C34.7241 15.1396 34.8912 17.3802 33.751 20.3404C36.317 21.6374 40.8597 24.1906 41.6065 26.9621C42.8284 26.6335 43.3585 25.1774 42.6117 24.1554C41.4026 22.5074 39.3436 20.8882 36.393 19.2593C36.9695 17.0067 36.9183 15.3755 36.9183 14.2184C39.9225 12.7375 43.8463 10.5649 45.7039 7.76702C46.4075 6.70751 45.7942 5.27057 44.5484 5.01709C43.8647 8.37954 37.9059 11.3502 34.7241 12.8383Z" fill="white"></path> <path d="M11.2742 10.6047C11.2742 10.1833 11.2382 9.36207 11.6388 8.34015C12.2529 6.76647 13.5979 5.53824 15.3187 5.11124L22.9992 3.20732L30.6796 5.11124C33.0545 5.69977 34.7234 7.82278 34.7234 10.2824V10.6047C38.9062 8.55445 43.5337 5.8365 43.9431 1.96869C44.0846 0.638904 42.7637 -0.373429 41.5138 0.132738C42.4398 2.41728 40.8669 4.09251 38.9422 5.58942C38.205 6.15715 37.323 6.72569 36.3058 7.30303C36.0636 6.74009 35.7533 6.21153 35.3847 5.72695C36.4938 4.94811 37.8763 3.74547 38.464 2.28534C38.9406 1.10349 37.794 -0.0847619 36.5969 0.353436C37.1103 1.75679 35.2879 3.34006 33.8982 4.25483C32.2997 3.06178 31.7959 3.13935 22.9984 0.945962C14.3416 3.10496 13.7411 3.0298 12.0986 4.25563C10.7097 3.34086 8.8873 1.75759 9.40067 0.354235C8.20362 -0.0839623 7.05775 1.10429 7.53353 2.28614C8.12206 3.74627 9.50382 4.94891 10.6129 5.72775C10.2443 6.21233 9.93402 6.74088 9.69173 7.30382C8.81214 6.80486 7.83499 6.19634 7.04336 5.58062C5.10185 4.13409 3.58256 2.36611 4.48374 0.133537C3.24031 -0.372629 1.91213 0.635705 2.05446 1.96949C2.48386 6.02601 7.6071 8.80713 11.2742 10.6047Z" fill="white"></path> <path d="M9.08114 14.2175C9.08114 15.3401 9.02516 16.9874 9.60489 19.2583C6.65346 20.8896 4.59361 22.5088 3.38777 24.1569C2.64011 25.1788 3.17267 26.6341 4.3929 26.962C5.14296 24.1817 9.68166 21.646 12.2485 20.3386C11.1146 17.3968 11.2753 15.2178 11.2753 12.8365C7.90088 11.2548 2.12915 8.33938 1.45266 5.01611C0.206836 5.2696 -0.406481 6.70653 0.295595 7.76604C2.14834 10.5584 6.06573 12.7357 9.08114 14.2175Z" fill="white"></path> <path d="M41.0454 29.8669C40.4009 26.3861 36.1884 23.8704 32.8948 22.1704C31.0148 25.5488 29.1637 26.5524 22.9993 31.1751L17.0917 26.7451C15.5156 25.5632 14.1242 24.004 13.1031 22.1704C9.91737 23.8153 5.60257 26.3509 4.95407 29.8661C4.71098 31.1727 5.97519 32.2697 7.2522 31.8347C7.02591 31.1727 6.33343 29.16 10.3508 26.3509C10.4427 26.2893 11.1032 25.7935 12.3658 25.0667C12.7041 25.5233 13.0663 25.9615 13.4493 26.3821C12.2987 27.1393 10.657 28.4467 10.0021 30.0732C9.52555 31.255 10.6722 32.4433 11.8693 32.0051C11.3047 30.4618 13.5653 28.701 14.9678 27.851C15.554 28.3508 15.051 27.9565 23.0001 33.9178C30.8917 27.9989 30.4247 28.3691 31.0324 27.851C32.435 28.701 34.6955 30.4618 34.131 32.0051C35.328 32.4433 36.4739 31.255 35.9981 30.0732C35.3424 28.4459 33.7016 27.1393 32.5509 26.3821C32.9331 25.9623 33.2962 25.5233 33.6344 25.0667C34.8986 25.7951 35.5575 26.2901 35.6495 26.3509C39.6668 29.16 38.9743 31.1727 38.7465 31.8347L38.7489 31.8363C40.0131 32.2705 41.2877 31.183 41.0454 29.8669Z" fill="white"></path> <path d="M67.504 22.927H63.6C62 22.927 60.7627 22.511 59.888 21.679C58.928 20.7723 58.448 19.3963 58.448 17.551C58.448 15.759 58.8107 14.3883 59.536 13.439C60.3893 12.319 61.7653 11.759 63.664 11.759H67.504V13.615H63.696C62.6293 13.615 61.8773 13.999 61.44 14.767C61.1093 15.3537 60.944 16.2123 60.944 17.343V17.903C60.944 18.799 61.072 19.471 61.328 19.919C61.7547 20.6657 62.544 21.039 63.696 21.039H67.504V22.927ZM79.4378 17.343C79.4378 19.455 78.8724 20.9963 77.7418 21.967C76.8138 22.767 75.5391 23.167 73.9178 23.167C73.0751 23.167 72.3444 23.071 71.7258 22.879C70.7551 22.5803 69.9924 22.047 69.4378 21.279C68.7338 20.3083 68.3818 18.9857 68.3818 17.311C68.3818 15.711 68.6698 14.4523 69.2458 13.535C69.7258 12.7777 70.4298 12.2337 71.3578 11.903C72.0511 11.6577 72.8938 11.535 73.8858 11.535C75.4644 11.535 76.6911 11.839 77.5658 12.447C78.3018 12.959 78.8191 13.7003 79.1178 14.671C79.3311 15.375 79.4378 16.2657 79.4378 17.343ZM76.9578 17.359C76.9578 15.8977 76.6644 14.847 76.0778 14.207C75.5871 13.6737 74.8618 13.407 73.9018 13.407C72.9524 13.407 72.2058 13.7377 71.6618 14.399C71.1178 15.0497 70.8458 16.0203 70.8458 17.311C70.8458 18.5377 70.9951 19.4337 71.2938 19.999C71.7524 20.8737 72.6218 21.311 73.9018 21.311C75.0218 21.311 75.8271 20.9483 76.3178 20.223C76.7444 19.5937 76.9578 18.639 76.9578 17.359ZM91.1033 16.879C91.1033 19.3217 90.6339 20.991 89.6953 21.887C88.9699 22.5803 87.7326 22.927 85.9833 22.927H80.8793V11.759H85.9193C87.9246 11.759 89.3433 12.3083 90.1753 13.407C90.7939 14.2283 91.1033 15.3857 91.1033 16.879ZM88.6393 17.343C88.6393 15.743 88.3566 14.6817 87.7913 14.159C87.4179 13.8177 86.7833 13.647 85.8873 13.647L83.1673 13.663V21.023L85.8553 21.007C86.9326 21.007 87.6633 20.7617 88.0473 20.271C88.4419 19.7803 88.6393 18.8043 88.6393 17.343ZM100.962 22.927H97.0575C95.4575 22.927 94.2202 22.511 93.3455 21.679C92.3855 20.7723 91.9055 19.3963 91.9055 17.551C91.9055 15.3963 92.3695 13.8657 93.2975 12.959C94.1082 12.159 95.3828 11.759 97.1215 11.759H100.962V13.647H97.1535C96.3108 13.647 95.6655 13.871 95.2175 14.319C94.7802 14.7563 94.5615 15.4283 94.5615 16.335H100.962V18.239H94.5135C94.5135 19.2737 94.7588 20.015 95.2495 20.463C95.6655 20.847 96.3002 21.039 97.1535 21.039H100.962V22.927ZM112.695 19.823C112.695 20.8043 112.492 21.5243 112.087 21.983C111.532 22.6123 110.503 22.927 108.999 22.927H102.919V11.759H108.599C109.889 11.759 110.828 11.9243 111.415 12.255C112.247 12.7243 112.663 13.5777 112.663 14.815C112.663 15.4017 112.535 15.887 112.279 16.271C112.023 16.6443 111.591 17.0017 110.983 17.343C111.591 17.631 112.028 17.9617 112.295 18.335C112.561 18.7083 112.695 19.2043 112.695 19.823ZM110.199 15.055C110.199 14.1697 109.676 13.727 108.631 13.727H105.207V16.351H108.583C109.095 16.351 109.479 16.2657 109.735 16.095C110.044 15.8817 110.199 15.535 110.199 15.055ZM110.231 19.663C110.231 18.7563 109.708 18.303 108.663 18.303H105.207V20.991H108.615C109.116 20.991 109.5 20.9003 109.767 20.719C110.076 20.5057 110.231 20.1537 110.231 19.663ZM123.422 11.759L119.198 17.999V22.927H116.894L116.878 17.999L112.718 11.759H115.278L118.014 16.047L120.782 11.759H123.422Z" fill="white"></path> <path d="M138.789 22.927H136.277L135.237 20.239H130.373L129.397 22.927H127.013L131.653 11.759H134.069L138.789 22.927ZM134.485 18.287L132.789 13.871L131.125 18.287H134.485ZM148.177 22.927H144.273C142.673 22.927 141.436 22.511 140.561 21.679C139.601 20.7723 139.121 19.3963 139.121 17.551C139.121 15.759 139.484 14.3883 140.209 13.439C141.062 12.319 142.438 11.759 144.337 11.759H148.177V13.615H144.369C143.302 13.615 142.55 13.999 142.113 14.767C141.782 15.3537 141.617 16.2123 141.617 17.343V17.903C141.617 18.799 141.745 19.471 142.001 19.919C142.428 20.6657 143.217 21.039 144.369 21.039H148.177V22.927ZM160.079 22.927H157.567L156.527 20.239H151.663L150.687 22.927H148.303L152.943 11.759H155.359L160.079 22.927ZM155.775 18.287L154.079 13.871L152.415 18.287H155.775ZM171.355 16.879C171.355 19.3217 170.885 20.991 169.947 21.887C169.221 22.5803 167.984 22.927 166.235 22.927H161.131V11.759H166.171C168.176 11.759 169.595 12.3083 170.427 13.407C171.045 14.2283 171.355 15.3857 171.355 16.879ZM168.891 17.343C168.891 15.743 168.608 14.6817 168.043 14.159C167.669 13.8177 167.035 13.647 166.139 13.647L163.419 13.663V21.023L166.107 21.007C167.184 21.007 167.915 20.7617 168.299 20.271C168.693 19.7803 168.891 18.8043 168.891 17.343ZM181.213 22.927H177.309C175.709 22.927 174.471 22.511 173.597 21.679C172.637 20.7723 172.157 19.3963 172.157 17.551C172.157 15.3963 172.621 13.8657 173.549 12.959C174.359 12.159 175.634 11.759 177.373 11.759H181.213V13.647H177.405C176.562 13.647 175.917 13.871 175.469 14.319C175.031 14.7563 174.813 15.4283 174.813 16.335H181.213V18.239H174.765C174.765 19.2737 175.01 20.015 175.501 20.463C175.917 20.847 176.551 21.039 177.405 21.039H181.213V22.927ZM195.602 22.927H193.554V14.223L190.674 22.927H188.242L185.266 14.143V22.927H183.17V11.759H186.562L189.394 20.447L192.258 11.759H195.602V22.927ZM206.767 11.759L202.543 17.999V22.927H200.239L200.223 17.999L196.063 11.759H198.623L201.359 16.047L204.127 11.759H206.767Z" fill="#D37F00"></path> </svg> 